<svg width="32" height="32" viewBox="0 0 32 32" fill="none" xmlns="http://www.w3.org/2000/svg">
<path d="M25.0022 22.9766C25.4063 23.0674 25.8076 22.8135 25.8984 22.4094C25.9893 22.0052 25.7353 21.604 25.3312 21.5131L25.0022 22.9766ZM7.66886 21.5131C7.26474 21.604 7.01078 22.0052 7.10163 22.4094C7.19248 22.8135 7.59375 23.0674 7.99787 22.9766L7.66886 21.5131ZM18.6577 9.9858L19.339 9.67223C19.2166 9.40622 18.9505 9.2358 18.6577 9.2358C18.3648 9.2358 18.0988 9.40622 17.9764 9.67223L18.6577 9.9858ZM16.0372 15.6794L15.3559 15.3659C15.2475 15.6015 15.2685 15.8765 15.4115 16.0929L16.0372 15.6794ZM22.1639 17.6041V18.3541C22.4195 18.3541 22.6576 18.2239 22.7954 18.0086C22.9333 17.7934 22.9521 17.5227 22.8452 17.2905L22.1639 17.6041ZM14.0726 12.7066L14.6983 12.2931C14.5595 12.083 14.3245 11.9566 14.0726 11.9566C13.8208 11.9566 13.5858 12.083 13.4469 12.2931L14.0726 12.7066ZM10.8361 17.6041L10.2104 17.1906C10.0582 17.4209 10.0448 17.7162 10.1756 17.9593C10.3063 18.2024 10.56 18.3541 10.8361 18.3541V17.6041ZM7.83332 27.1111L7.66879 27.8428C7.89106 27.8928 8.12399 27.8391 8.30188 27.6967C8.47977 27.5544 8.58332 27.3389 8.58332 27.1111H7.83332ZM7.83332 9.69788H8.58332C8.58332 9.34706 8.34012 9.04311 7.99784 8.96615L7.83332 9.69788ZM25.1667 9.69788L25.0022 8.96615C24.6599 9.0431 24.4167 9.34705 24.4167 9.69788H25.1667ZM25.1667 27.1111H24.4167C24.4167 27.3389 24.5202 27.5544 24.6981 27.6967C24.876 27.839 25.1089 27.8928 25.3312 27.8428L25.1667 27.1111ZM25.3312 21.5131C22.9652 20.9812 19.8713 20.6632 16.5 20.6632V22.1632C19.7882 22.1632 22.7681 22.4744 25.0022 22.9766L25.3312 21.5131ZM16.5 20.6632C13.1287 20.6632 10.0348 20.9812 7.66886 21.5131L7.99787 22.9766C10.2319 22.4744 13.2118 22.1632 16.5 22.1632V20.6632ZM30.25 7.26498C30.25 6.387 29.5591 5.76356 28.8613 5.34922C28.1143 4.90565 27.0833 4.53233 25.8751 4.22888C23.4472 3.61911 20.1329 3.25 16.5 3.25V4.75C20.0468 4.75 23.2325 5.11179 25.5097 5.6837C26.654 5.9711 27.5268 6.30132 28.0955 6.63898C28.7134 7.00588 28.75 7.24136 28.75 7.26498H30.25ZM16.5 3.25C12.8671 3.25 9.55283 3.61911 7.12491 4.22888C5.91671 4.53233 4.88569 4.90565 4.13868 5.34922C3.4409 5.76356 2.75 6.387 2.75 7.26498H4.25C4.25 7.24136 4.28664 7.00588 4.90453 6.63898C5.47318 6.30132 6.34596 5.9711 7.4903 5.6837C9.76745 5.11179 12.9532 4.75 16.5 4.75V3.25ZM14.1317 9.44163C14.1317 9.48441 14.0991 9.50788 14.0726 9.50788V11.0079C14.9399 11.0079 15.6317 10.3004 15.6317 9.44163H14.1317ZM14.0726 9.50788C14.0462 9.50788 14.0135 9.48441 14.0135 9.44163H12.5135C12.5135 10.3004 13.2054 11.0079 14.0726 11.0079V9.50788ZM14.0135 9.44163C14.0135 9.39883 14.0461 9.37539 14.0726 9.37539V7.87539C13.2054 7.87539 12.5135 8.58275 12.5135 9.44163H14.0135ZM14.0726 9.37539C14.0991 9.37539 14.1317 9.39883 14.1317 9.44163H15.6317C15.6317 8.58275 14.9398 7.87539 14.0726 7.87539V9.37539ZM17.9764 9.67223L15.3559 15.3659L16.7185 15.993L19.339 10.2994L17.9764 9.67223ZM15.4115 16.0929L16.6834 18.0176L17.9348 17.1906L16.6629 15.2659L15.4115 16.0929ZM17.3091 18.3541H22.1639V16.8541H17.3091V18.3541ZM22.8452 17.2905L19.339 9.67223L17.9764 10.2994L21.4826 17.9176L22.8452 17.2905ZM13.4469 12.2931L10.2104 17.1906L11.4618 18.0176L14.6983 13.1201L13.4469 12.2931ZM10.8361 18.3541H17.3091V16.8541H10.8361V18.3541ZM17.9348 17.1906L14.6983 12.2931L13.4469 13.1201L16.6834 18.0176L17.9348 17.1906ZM2.75 7.26498V24.6782H4.25V7.26498H2.75ZM2.75 24.6782C2.75 25.1515 2.95814 25.5556 3.23896 25.8763C3.51553 26.1921 3.88912 26.4599 4.30843 26.6903C5.14758 27.1514 6.30812 27.5369 7.66879 27.8428L7.99784 26.3794C6.69972 26.0875 5.6936 25.7399 5.03078 25.3757C4.69912 25.1935 4.48791 25.0256 4.36741 24.888C4.25117 24.7553 4.25 24.6883 4.25 24.6782H2.75ZM8.58332 27.1111V9.69788H7.08332V27.1111H8.58332ZM7.99784 8.96615C6.69972 8.67427 5.6936 8.3267 5.03078 7.9625C4.69912 7.78025 4.48791 7.6124 4.36741 7.47481C4.25117 7.34208 4.25 7.27512 4.25 7.26498H2.75C2.75 7.73825 2.95814 8.14238 3.23896 8.46304C3.51553 8.77885 3.88912 9.04671 4.30843 9.27711C5.14758 9.7382 6.30812 10.1237 7.66879 10.4296L7.99784 8.96615ZM24.4167 9.69788V27.1111H25.9167V9.69788H24.4167ZM25.3312 27.8428C26.6919 27.5369 27.8524 27.1514 28.6916 26.6903C29.1109 26.4599 29.4845 26.1921 29.761 25.8763C30.0419 25.5556 30.25 25.1515 30.25 24.6782H28.75C28.75 24.6883 28.7488 24.7553 28.6326 24.888C28.5121 25.0256 28.3009 25.1935 27.9692 25.3757C27.3064 25.7399 26.3003 26.0875 25.0022 26.3794L25.3312 27.8428ZM30.25 24.6782V7.26498H28.75V24.6782H30.25ZM28.75 7.26498C28.75 7.27512 28.7488 7.34208 28.6326 7.47481C28.5121 7.6124 28.3009 7.78025 27.9692 7.96249C27.3064 8.3267 26.3003 8.67427 25.0022 8.96615L25.3312 10.4296C26.6919 10.1237 27.8524 9.7382 28.6916 9.27711C29.1109 9.04671 29.4845 8.77885 29.761 8.46304C30.0419 8.14238 30.25 7.73825 30.25 7.26498H28.75Z" fill="black"/>
</svg>
