<?xml version="1.0" encoding="utf-8"?>
<!-- Generator: Adobe Illustrator 22.0.1, SVG Export Plug-In . SVG Version: 6.00 Build 0)  -->
<svg version="1.1" id="Layer_1" xmlns="http://www.w3.org/2000/svg" xmlns:xlink="http://www.w3.org/1999/xlink" x="0px" y="0px"
	 width="20px" height="20px" viewBox="0 0 20 20" style="enable-background:new 0 0 20 20;" xml:space="preserve">
<style type="text/css">
	.st0{fill:#FFFFFF;}
</style>
<g id="c-check" transform="translate(1 1)">
	<g id="Oval">
		<path class="st0" d="M9,19C3.5,19-1,14.5-1,9C-1,3.5,3.5-1,9-1c5.5,0,10,4.5,10,10C19,14.5,14.5,19,9,19z M9,1C4.6,1,1,4.6,1,9
			s3.6,8,8,8s8-3.6,8-8S13.4,1,9,1z"/>
	</g>
	<g id="Path">
		<path class="st0" d="M7.1,13.3c-0.3,0-0.5-0.1-0.7-0.3L3.3,9.8c-0.4-0.4-0.4-1,0-1.4s1-0.4,1.4,0l2.4,2.4l5.5-5.5
			c0.4-0.4,1-0.4,1.4,0s0.4,1,0,1.4L7.8,13C7.6,13.2,7.4,13.3,7.1,13.3z"/>
	</g>
</g>
</svg>
