<svg width="18" height="18" viewBox="0 0 18 18" fill="none" xmlns="http://www.w3.org/2000/svg">
<path d="M16.232 15.752L16.6763 16.1552L16.6766 16.1549L16.232 15.752ZM14.92 16.696L14.6925 16.1408L14.6892 16.1422L14.92 16.696ZM8 14.832L7.6461 15.3165L7.64684 15.3171L8 14.832ZM5.376 12.592L4.94967 13.0142L4.95379 13.0183L5.376 12.592ZM3.144 9.976L2.65691 10.3264L2.65894 10.3292L3.144 9.976ZM1.576 7.248L1.02302 7.48084L1.02376 7.48258L1.576 7.248ZM1.288 3.088L1.84509 3.31084L1.84634 3.30767L1.288 3.088ZM2.208 1.752L2.61983 2.18853L2.62891 2.17959L2.208 1.752ZM4.52 1.144L4.26033 1.68498L4.26857 1.68878L4.52 1.144ZM5.056 1.592L4.56265 1.93355L4.56665 1.93918L5.056 1.592ZM6.912 4.208L6.42264 4.55519L6.42508 4.55858L6.912 4.208ZM7.232 4.768L6.6766 4.99521L6.68051 5.00435L7.232 4.768ZM7.176 5.824L6.66348 5.51203L6.65844 5.52032L6.65366 5.52877L7.176 5.824ZM6.728 6.392L6.30366 5.96766L6.29561 5.97603L6.728 6.392ZM6.12 7.024L6.54434 7.44834L6.55239 7.43997L6.12 7.024ZM6.016 7.528L5.43392 7.67352L5.4422 7.70668L5.4542 7.73867L6.016 7.528ZM6.08 7.688L5.51079 7.87774L5.52768 7.92841L5.55326 7.97531L6.08 7.688ZM6.824 8.712L6.36594 9.09959L6.3703 9.10463L6.824 8.712ZM7.984 9.976L7.55564 10.3963L7.56372 10.4042L7.984 9.976ZM9.256 11.152L8.86766 11.6094L8.86843 11.61L9.256 11.152ZM10.288 11.888L10.0073 12.4183L10.0355 12.4332L10.0652 12.4451L10.288 11.888ZM10.432 11.952L10.1956 12.5035L10.2084 12.5089L10.2213 12.5138L10.432 11.952ZM10.96 11.848L10.5385 11.4209L10.5357 11.4237L10.96 11.848ZM11.568 11.248L11.9895 11.6751L11.9923 11.6723L11.568 11.248ZM12.144 10.8L12.4215 11.332L12.4391 11.3228L12.456 11.3125L12.144 10.8ZM13.76 11.048L14.1074 10.5587L14.0974 10.5518L13.76 11.048ZM16.408 12.928L16.0606 13.4173L16.0665 13.4213L16.408 12.928ZM16.848 13.44L17.4051 13.2172L17.4013 13.2077L17.3972 13.1984L16.848 13.44ZM13.6 6.6C13.6 6.93137 13.8686 7.2 14.2 7.2C14.5314 7.2 14.8 6.93137 14.8 6.6H13.6ZM13.264 4.784L12.8241 5.19203L12.8254 5.19339L13.264 4.784ZM11.4 3.2C11.0686 3.2 10.8 3.46863 10.8 3.8C10.8 4.13137 11.0686 4.4 11.4 4.4V3.2ZM16.4 6.6C16.4 6.93137 16.6686 7.2 17 7.2C17.3314 7.2 17.6 6.93137 17.6 6.6H16.4ZM11.4 0.4C11.0686 0.4 10.8 0.668629 10.8 1C10.8 1.33137 11.0686 1.6 11.4 1.6V0.4ZM16.376 14.064C16.376 14.262 16.3322 14.4706 16.2335 14.6798L17.3185 15.1922C17.4918 14.8254 17.576 14.442 17.576 14.064H16.376ZM16.2335 14.6798C16.1213 14.9174 15.9775 15.1393 15.7874 15.3491L16.6766 16.1549C16.9505 15.8527 17.1587 15.5306 17.3185 15.1922L16.2335 14.6798ZM15.7877 15.3488C15.4485 15.7226 15.0884 15.9785 14.6925 16.1408L15.1475 17.2512C15.7276 17.0135 16.2315 16.6454 16.6763 16.1552L15.7877 15.3488ZM14.6892 16.1422C14.2851 16.3105 13.8438 16.4 13.36 16.4V17.6C13.9962 17.6 14.5949 17.4815 15.1508 17.2498L14.6892 16.1422ZM13.36 16.4C12.6389 16.4 11.8469 16.2303 10.9872 15.864L10.5168 16.968C11.4971 17.3857 12.4491 17.6 13.36 17.6V16.4ZM10.9872 15.864C10.1132 15.4916 9.23243 14.9871 8.35316 14.3469L7.64684 15.3171C8.59157 16.0049 9.55082 16.5564 10.5168 16.968L10.9872 15.864ZM8.3539 14.3475C7.45863 13.6936 6.60941 12.9691 5.79821 12.1657L4.95379 13.0183C5.80659 13.8629 6.70137 14.6265 7.6461 15.3165L8.3539 14.3475ZM5.80231 12.1698C4.9988 11.3585 4.27458 10.5095 3.62906 9.62284L2.65894 10.3292C3.34142 11.2665 4.1052 12.1615 4.94969 13.0142L5.80231 12.1698ZM3.63108 9.62564C2.9962 8.743 2.49192 7.86957 2.12824 7.01342L1.02376 7.48258C1.42808 8.43443 1.9798 9.385 2.65692 10.3264L3.63108 9.62564ZM2.12898 7.01517C1.77024 6.16317 1.6 5.37039 1.6 4.632H0.4C0.4 5.55761 0.613756 6.50884 1.02302 7.48083L2.12898 7.01517ZM1.6 4.632C1.6 4.15911 1.68331 3.71527 1.84509 3.31083L0.730914 2.86517C0.508687 3.42073 0.4 4.01689 0.4 4.632H1.6ZM1.84634 3.30767C2.00405 2.90684 2.25593 2.53165 2.61973 2.18844L1.79627 1.31556C1.31207 1.77235 0.955954 2.29316 0.72966 2.86833L1.84634 3.30767ZM2.62891 2.17959C3.05035 1.76474 3.4655 1.6 3.872 1.6V0.4C3.0945 0.4 2.38965 0.73126 1.78709 1.32441L2.62891 2.17959ZM3.872 1.6C4.01198 1.6 4.14651 1.63027 4.26036 1.68491L4.77964 0.603086C4.49349 0.465734 4.18002 0.4 3.872 0.4V1.6ZM4.26857 1.68878C4.38743 1.74364 4.48465 1.82081 4.56268 1.93353L5.54932 1.25047C5.33935 0.94719 5.06857 0.736363 4.77144 0.599224L4.26857 1.68878ZM4.56665 1.93918L6.42265 4.55518L7.40135 3.86082L5.54535 1.24482L4.56665 1.93918ZM6.42508 4.55858C6.54734 4.72839 6.62597 4.87123 6.67667 4.99518L7.78733 4.54082C7.69403 4.31277 7.56466 4.08761 7.39892 3.85742L6.42508 4.55858ZM6.68051 5.00435C6.72912 5.11778 6.744 5.2046 6.744 5.256H7.944C7.944 5.0034 7.87888 4.75422 7.78349 4.53165L6.68051 5.00435ZM6.744 5.256C6.744 5.32723 6.72411 5.41242 6.66348 5.51203L7.68852 6.13597C7.85189 5.86758 7.944 5.56877 7.944 5.256H6.744ZM6.65366 5.52877C6.58317 5.65348 6.46855 5.80292 6.30374 5.96774L7.15226 6.81626C7.37145 6.59708 7.56083 6.36252 7.69834 6.11923L6.65366 5.52877ZM6.29561 5.97603L5.68761 6.60803L6.55239 7.43997L7.16039 6.80797L6.29561 5.97603ZM5.69574 6.59974C5.48593 6.80954 5.392 7.0705 5.392 7.344H6.592C6.592 7.34347 6.59185 7.36214 6.58081 7.39002C6.56931 7.41904 6.55355 7.43898 6.54426 7.44826L5.69574 6.59974ZM5.392 7.344C5.392 7.46484 5.40807 7.57012 5.43392 7.67352L6.59809 7.38248C6.59194 7.35788 6.592 7.35116 6.592 7.344H5.392ZM5.4542 7.73867C5.47146 7.78468 5.48879 7.82502 5.49842 7.84778C5.51009 7.87537 5.51123 7.87906 5.51079 7.87774L6.64921 7.49826C6.63277 7.44894 6.61391 7.40463 6.60358 7.38022C6.59121 7.35098 6.58455 7.33532 6.5778 7.31733L5.4542 7.73867ZM5.55326 7.97531C5.72562 8.29129 6.00335 8.67102 6.36597 9.09957L7.28203 8.32444C6.94065 7.92098 6.72238 7.61271 6.60674 7.40069L5.55326 7.97531ZM6.3703 9.10463C6.7364 9.52768 7.12898 9.96127 7.55571 10.3962L8.41228 9.5558C8.00702 9.14273 7.6316 8.72832 7.2777 8.31937L6.3703 9.10463ZM7.56372 10.4042C8.00054 10.8329 8.42806 11.2361 8.86766 11.6094L9.64434 10.6946C9.23594 10.3479 8.83146 9.96706 8.40428 9.54779L7.56372 10.4042ZM8.86843 11.61C9.30219 11.9771 9.68291 12.2466 10.0073 12.4183L10.5687 11.3577C10.3491 11.2414 10.0418 11.0309 9.64357 10.694L8.86843 11.61ZM10.0652 12.4451C10.0693 12.4467 10.0781 12.4506 10.104 12.4624C10.1259 12.4725 10.1593 12.4879 10.1956 12.5035L10.6684 11.4005C10.6487 11.3921 10.6301 11.3835 10.604 11.3716C10.5819 11.3614 10.5467 11.3453 10.5108 11.3309L10.0652 12.4451ZM10.2213 12.5138C10.373 12.5707 10.5135 12.584 10.632 12.584V11.384C10.6179 11.384 10.615 11.3832 10.6189 11.3838C10.6209 11.3841 10.6244 11.3847 10.6288 11.3858C10.6333 11.387 10.638 11.3885 10.6427 11.3902L10.2213 12.5138ZM10.632 12.584C10.9356 12.584 11.1899 12.4666 11.3843 12.2723L10.5357 11.4237C10.5377 11.4218 10.5522 11.4084 10.5789 11.397C10.6062 11.3854 10.6271 11.384 10.632 11.384V12.584ZM11.3814 12.2751L11.9894 11.6751L11.1466 10.8209L10.5386 11.4209L11.3814 12.2751ZM11.9923 11.6723C12.168 11.4965 12.3111 11.3896 12.4215 11.332L11.8665 10.268C11.6089 10.4024 11.368 10.5995 11.1437 10.8237L11.9923 11.6723ZM12.456 11.3125C12.5577 11.2506 12.635 11.232 12.712 11.232V10.032C12.389 10.032 12.0983 10.1254 11.832 10.2875L12.456 11.3125ZM12.712 11.232C12.7761 11.232 12.859 11.2448 12.9728 11.2913L13.4272 10.1807C13.189 10.0832 12.9519 10.032 12.712 10.032V11.232ZM12.9728 11.2913C13.0984 11.3427 13.2449 11.4233 13.4226 11.5442L14.0974 10.5518C13.8751 10.4007 13.6536 10.2733 13.4272 10.1807L12.9728 11.2913ZM13.4127 11.5372L16.0607 13.4172L16.7553 12.4388L14.1073 10.5588L13.4127 11.5372ZM16.0665 13.4213C16.1973 13.5119 16.2618 13.5976 16.2988 13.6816L17.3972 13.1984C17.2582 12.8824 17.0347 12.6321 16.7495 12.4347L16.0665 13.4213ZM16.2909 13.6628C16.349 13.808 16.376 13.9319 16.376 14.064H17.576C17.576 13.7481 17.507 13.472 17.4051 13.2172L16.2909 13.6628ZM14.8 6.6C14.8 6.22415 14.66 5.82125 14.4756 5.46267C14.285 5.09194 14.0184 4.71289 13.7026 4.37461L12.8254 5.19339C13.0696 5.45511 13.271 5.74406 13.4084 6.01133C13.552 6.29075 13.6 6.49585 13.6 6.6H14.8ZM13.7039 4.37597C13.1418 3.76998 12.3137 3.2 11.4 3.2V4.4C11.8303 4.4 12.3622 4.69402 12.8241 5.19203L13.7039 4.37597ZM17.6 6.6C17.6 3.17263 14.8274 0.4 11.4 0.4V1.6C14.1646 1.6 16.4 3.83537 16.4 6.6H17.6Z" fill="white"/>
</svg>
