<svg width="22" height="22" viewBox="0 0 22 22" fill="none" xmlns="http://www.w3.org/2000/svg">
<path d="M7.57001 16.12L8.5 15C12.64 15 16 11.87 16 8C16 6.95 15.75 5.96001 15.3 5.07001M7.57001 16.12L7.02 16.78C6.55 17.34 5.65 17.22 5.34 16.55L4 13.6C2.18 12.32 1 10.29 1 8C1 4.13 4.36 1 8.5 1C11.52 1 14.13 2.67001 15.3 5.07001M7.57001 16.12C8.92001 17.79 11.0798 18.8598 13.4998 18.8598L14.9798 20.6398C15.4498 21.2098 16.3498 21.0798 16.6598 20.4098L17.9998 17.4598C19.8198 16.1798 20.9998 14.1498 20.9998 11.8598C20.9998 8.5798 18.57 5.82001 15.3 5.07001M6 8H11" stroke="white" stroke-width="1.6" stroke-linecap="round" stroke-linejoin="round"/>
</svg>
