<svg width="22" height="22" viewBox="0 0 22 22" fill="none" xmlns="http://www.w3.org/2000/svg">
<path d="M20.04 19.44L20.6325 19.9776L20.6328 19.9772L20.04 19.44ZM18.4 20.62L18.0966 19.8797L18.0923 19.8815L18.4 20.62ZM9.75 18.29L9.27813 18.936L9.27913 18.9367L9.75 18.29ZM6.47 15.49L5.90156 16.053L5.90705 16.0584L6.47 15.49ZM3.68 12.22L3.03055 12.6872L3.03326 12.6909L3.68 12.22ZM1.72 8.81L0.982688 9.12045L0.983677 9.12278L1.72 8.81ZM1.36 3.61L2.10279 3.90712L2.10445 3.9029L1.36 3.61ZM2.51 1.94L3.05898 2.52191L3.06516 2.51608L3.07121 2.51012L2.51 1.94ZM5.4 1.18L5.05378 1.9013L5.06475 1.90637L5.4 1.18ZM6.07 1.74L5.4122 2.1954L5.41753 2.20291L6.07 1.74ZM8.39 5.01L7.73752 5.47292L7.74077 5.47744L8.39 5.01ZM8.79 5.71L8.04946 6.01295L8.05468 6.02514L8.79 5.71ZM8.72 7.03L8.03664 6.61404L8.02992 6.62509L8.02355 6.63635L8.72 7.03ZM8.16 7.74L7.59431 7.17431L7.58884 7.17979L7.58347 7.18537L8.16 7.74ZM7.4 8.53L7.96568 9.09569L7.97116 9.09021L7.97653 9.08463L7.4 8.53ZM7.27 9.16L6.49389 9.35403L6.50494 9.39823L6.52094 9.4409L7.27 9.16ZM7.35 9.36L6.59105 9.61298L6.61358 9.68055L6.64768 9.74308L7.35 9.36ZM8.28 10.64L7.66925 11.1568L7.67506 11.1635L8.28 10.64ZM9.73 12.22L9.15895 12.7803L9.16424 12.7857L9.16963 12.7909L9.73 12.22ZM11.32 13.69L10.8022 14.2998L10.8032 14.3007L11.32 13.69ZM12.61 14.61L12.2357 15.317L12.2733 15.337L12.3129 15.3528L12.61 14.61ZM12.79 14.69L12.4749 15.4253L12.4918 15.4326L12.5091 15.4391L12.79 14.69ZM13.45 14.56L12.8881 13.9906L12.8843 13.9943L13.45 14.56ZM14.21 13.81L14.7719 14.3794L14.7757 14.3757L14.21 13.81ZM14.93 13.25L15.3001 13.9593L15.3234 13.9471L15.346 13.9334L14.93 13.25ZM16.95 13.56L17.4131 12.9077L17.4065 12.903L17.3998 12.8985L16.95 13.56ZM20.26 15.91L19.7968 16.5624L19.8046 16.5678L20.26 15.91ZM20.81 16.55L21.5528 16.2529L21.5477 16.2403L21.5423 16.2278L20.81 16.55ZM16.7 8C16.7 8.44183 17.0582 8.8 17.5 8.8C17.9418 8.8 18.3 8.44183 18.3 8H16.7ZM16.33 5.73L15.7435 6.27404L15.7452 6.27585L16.33 5.73ZM14 3.7C13.5582 3.7 13.2 4.05817 13.2 4.5C13.2 4.94183 13.5582 5.3 14 5.3V3.7ZM20.2 8C20.2 8.44183 20.5582 8.8 21 8.8C21.4418 8.8 21.8 8.44183 21.8 8H20.2ZM14 0.2C13.5582 0.2 13.2 0.558172 13.2 1C13.2 1.44183 13.5582 1.8 14 1.8V0.2ZM20.17 17.33C20.17 17.57 20.117 17.8235 19.9966 18.0784L21.4434 18.7616C21.663 18.2965 21.77 17.81 21.77 17.33H20.17ZM19.9966 18.0784C19.8583 18.3712 19.6813 18.6444 19.4472 18.9028L20.6328 19.9772C20.9787 19.5956 21.2417 19.1888 21.4434 18.7616L19.9966 18.0784ZM19.4476 18.9024C19.028 19.3648 18.5839 19.6801 18.0966 19.8798L18.7034 21.3602C19.4361 21.0599 20.072 20.5952 20.6325 19.9776L19.4476 18.9024ZM18.0923 19.8815C17.5935 20.0894 17.0484 20.2 16.45 20.2V21.8C17.2516 21.8 18.0065 21.6506 18.7077 21.3585L18.0923 19.8815ZM16.45 20.2C15.5565 20.2 14.5733 19.9898 13.5036 19.534L12.8764 21.006C14.1067 21.5302 15.3035 21.8 16.45 21.8V20.2ZM13.5036 19.534C12.4149 19.0701 11.3172 18.4415 10.2209 17.6433L9.27913 18.9367C10.4628 19.7985 11.6651 20.4899 12.8764 21.006L13.5036 19.534ZM10.2219 17.644C9.10484 16.8281 8.04521 15.9241 7.03295 14.9216L5.90705 16.0584C6.97479 17.1159 8.09516 18.0719 9.27813 18.936L10.2219 17.644ZM7.03841 14.9271C6.03573 13.9146 5.13211 12.8553 4.32674 11.7491L3.03326 12.6909C3.88789 13.8647 4.84427 14.9854 5.90159 16.0529L7.03841 14.9271ZM4.32944 11.7529C3.5376 10.652 2.90922 9.56343 2.45632 8.49723L0.983677 9.12278C1.49078 10.3166 2.1824 11.508 3.03056 12.6871L4.32944 11.7529ZM2.45731 8.49955C2.01099 7.43955 1.8 6.45519 1.8 5.54H0.2C0.2 6.70481 0.469008 7.90045 0.982692 9.12045L2.45731 8.49955ZM1.8 5.54C1.8 4.95481 1.90308 4.40636 2.10278 3.90711L0.617219 3.31289C0.336916 4.01364 0.2 4.76519 0.2 5.54H1.8ZM2.10445 3.9029C2.29873 3.40912 2.60924 2.9462 3.05898 2.52191L1.96102 1.35809C1.35077 1.9338 0.901272 2.59088 0.615547 3.3171L2.10445 3.9029ZM3.07121 2.51012C3.59046 1.99899 4.09733 1.8 4.59 1.8V0.2C3.60267 0.2 2.70954 0.621013 1.94879 1.36988L3.07121 2.51012ZM4.59 1.8C4.75798 1.8 4.91868 1.83636 5.05382 1.90122L5.74618 0.458782C5.38132 0.283645 4.98203 0.2 4.59 0.2V1.8ZM5.06475 1.90637C5.20591 1.97152 5.3202 2.06241 5.41225 2.19537L6.72775 1.28463C6.4598 0.897586 6.11409 0.628484 5.73525 0.453633L5.06475 1.90637ZM5.41753 2.20291L7.73753 5.47291L9.04247 4.54709L6.72247 1.27709L5.41753 2.20291ZM7.74077 5.47744C7.89179 5.68719 7.98795 5.86231 8.04956 6.01291L9.53044 5.40709C9.41205 5.11769 9.24821 4.83281 9.03923 4.54256L7.74077 5.47744ZM8.05468 6.02514C8.1135 6.16237 8.13 6.26414 8.13 6.32H9.73C9.73 5.99586 9.6465 5.67763 9.52532 5.39486L8.05468 6.02514ZM8.13 6.32C8.13 6.39897 8.10815 6.49656 8.03664 6.61404L9.40336 7.44596C9.61185 7.10344 9.73 6.72103 9.73 6.32H8.13ZM8.02355 6.63635C7.93823 6.78731 7.79807 6.97056 7.59431 7.17431L8.72569 8.30569C9.00193 8.02944 9.24177 7.73269 9.41645 7.42365L8.02355 6.63635ZM7.58347 7.18537L6.82347 7.97537L7.97653 9.08463L8.73653 8.29463L7.58347 7.18537ZM6.83431 7.96431C6.56191 8.23672 6.44 8.576 6.44 8.93H8.04C8.04 8.93462 8.03897 8.96436 8.0225 9.00594C8.00541 9.04905 7.98174 9.07963 7.96568 9.09569L6.83431 7.96431ZM6.44 8.93C6.44 9.08579 6.46075 9.2215 6.49389 9.35403L8.04611 8.96597C8.0419 8.94911 8.04078 8.94152 8.04048 8.93927C8.04027 8.93765 8.04 8.93549 8.04 8.93H6.44ZM6.52094 9.4409C6.54294 9.49957 6.56505 9.55102 6.57698 9.57921C6.59162 9.61383 6.59231 9.61675 6.59105 9.61298L8.10895 9.10702C8.08769 9.04325 8.06338 8.98617 8.05052 8.95579C8.03495 8.91898 8.02706 8.90042 8.01906 8.8791L6.52094 9.4409ZM6.64768 9.74308C6.86549 10.1424 7.21514 10.62 7.66929 11.1568L8.89071 10.1232C8.46486 9.61997 8.19451 9.23761 8.05232 8.97692L6.64768 9.74308ZM7.67506 11.1635C8.1332 11.6929 8.62465 12.2357 9.15895 12.7803L10.301 11.6597C9.79535 11.1443 9.3268 10.6271 8.88493 10.1165L7.67506 11.1635ZM9.16963 12.7909C9.71606 13.3273 10.2514 13.8322 10.8022 14.2998L11.8378 13.0802C11.3286 12.6478 10.8239 12.1727 10.2904 11.6491L9.16963 12.7909ZM10.8032 14.3007C11.3469 14.7607 11.8259 15.1001 12.2357 15.317L12.9843 13.903C12.7141 13.7599 12.3331 13.4993 11.8368 13.0793L10.8032 14.3007ZM12.3129 15.3528C12.3128 15.3527 12.3137 15.3531 12.3159 15.3541C12.3181 15.355 12.3211 15.3563 12.3252 15.3581C12.3339 15.362 12.3443 15.3667 12.3592 15.3735C12.3863 15.3859 12.4288 15.4056 12.4749 15.4253L13.1051 13.9547C13.0812 13.9444 13.0587 13.9341 13.0258 13.919C12.9984 13.9064 12.9533 13.8857 12.9071 13.8672L12.3129 15.3528ZM12.5091 15.4391C12.706 15.5129 12.888 15.53 13.04 15.53V13.93C13.0242 13.93 13.0232 13.9291 13.0311 13.9303C13.0352 13.9309 13.0412 13.932 13.0484 13.9339C13.0557 13.9357 13.0633 13.9381 13.0709 13.9409L12.5091 15.4391ZM13.04 15.53C13.4335 15.53 13.7639 15.3775 14.0157 15.1257L12.8843 13.9943C12.8906 13.988 12.9139 13.9673 12.954 13.9502C12.9949 13.9328 13.0278 13.93 13.04 13.93V15.53ZM14.0119 15.1294L14.7719 14.3794L13.6481 13.2406L12.8881 13.9906L14.0119 15.1294ZM14.7757 14.3757C14.9933 14.158 15.1681 14.0281 15.3001 13.9593L14.5599 12.5407C14.2319 12.7119 13.9267 12.962 13.6443 13.2443L14.7757 14.3757ZM15.346 13.9334C15.4663 13.8601 15.5541 13.84 15.64 13.84V12.24C15.2259 12.24 14.8537 12.3599 14.514 12.5666L15.346 13.9334ZM15.64 13.84C15.7127 13.84 15.81 13.8544 15.9471 13.9104L16.5529 12.4296C16.25 12.3056 15.9473 12.24 15.64 12.24V13.84ZM15.9471 13.9104C16.0999 13.973 16.2799 14.0717 16.5002 14.2215L17.3998 12.8985C17.1201 12.7083 16.8401 12.547 16.5529 12.4296L15.9471 13.9104ZM16.4869 14.2123L19.7969 16.5623L20.7231 15.2577L17.4131 12.9077L16.4869 14.2123ZM19.8046 16.5678C19.9617 16.6765 20.0358 16.7768 20.0777 16.8722L21.5423 16.2278C21.3642 15.8232 21.0783 15.5035 20.7154 15.2522L19.8046 16.5678ZM20.0672 16.8471C20.138 17.024 20.17 17.1725 20.17 17.33H21.77C21.77 16.9275 21.682 16.576 21.5528 16.2529L20.0672 16.8471ZM18.3 8C18.3 7.51886 18.1211 7.007 17.889 6.55547C17.6485 6.08775 17.3125 5.61018 16.9148 5.18415L15.7452 6.27585C16.0475 6.59982 16.2965 6.95725 16.466 7.28703C16.6439 7.633 16.7 7.88114 16.7 8H18.3ZM16.9165 5.18597C16.2098 4.42397 15.1623 3.7 14 3.7V5.3C14.5177 5.3 15.1702 5.65603 15.7435 6.27403L16.9165 5.18597ZM21.8 8C21.8 3.68817 18.3118 0.2 14 0.2V1.8C17.4282 1.8 20.2 4.57183 20.2 8H21.8Z" fill="white"/>
</svg>
