<svg width="300" height="150" viewBox="0 0 300 150" fill="none" xmlns="http://www.w3.org/2000/svg">
<path d="M90.5995 57V75.7611C90.5995 76.2131 90.5995 76.8913 90.5995 77.5694C90.5995 78.2475 90.5995 78.9256 90.8258 79.6037L74.0831 58.3562C73.8568 58.1302 73.6306 57.9041 73.4043 57.6781C73.178 57.4521 72.9518 57.4521 72.7255 57.226C72.4993 57.226 72.273 57 72.0468 57C71.8205 57 71.368 57 71.1418 57H66.843V92.2618H74.0831V73.2747C74.0831 72.8226 74.0831 72.1445 74.0831 71.6924C74.0831 71.0143 74.0831 70.5622 73.8568 69.8841L90.5995 90.9055C90.8258 91.3576 91.2783 91.8097 91.7308 92.0357C92.1833 92.2618 92.8621 92.2618 93.3146 92.2618H97.6134V57H90.5995ZM62.7704 67.6237C61.8654 65.5894 60.7341 63.5551 59.1504 61.9728C57.5666 60.3906 55.5303 59.0343 53.2678 58.3562C50.779 57.4521 48.2902 57 45.8014 57H32V92.2618H45.8014C48.2902 92.2618 51.0053 91.8097 53.2678 90.9055C55.5303 90.0014 57.3403 88.8712 59.1504 87.289C60.7341 85.7067 62.0916 83.6724 62.7704 81.638C63.6754 79.3777 64.1279 76.8913 64.1279 74.6309C64.1279 72.1445 63.6754 69.6581 62.7704 67.6237ZM54.8516 79.3777C54.399 80.7339 53.7203 81.8641 52.8153 82.9942C51.9103 83.8984 51.0053 84.8025 49.6477 85.2546C48.2902 85.7067 46.9327 86.1588 45.3489 85.9327H39.9189V63.329H45.3489C46.7064 63.329 48.2902 63.5551 49.6477 64.0071C50.779 64.4592 51.9103 65.3634 52.8153 66.2675C53.7203 67.3977 54.399 68.5279 54.8516 69.8841C55.3041 71.4664 55.5303 73.0486 55.5303 74.6309C55.7566 76.2131 55.3041 77.7954 54.8516 79.3777Z" fill="white"/>
<path d="M97.6134 92.2618H97.8396V91.5837L97.6134 92.2618ZM190.151 78.2475C190.151 77.7954 190.151 77.3433 190.151 76.8913C190.151 75.083 189.925 73.2747 189.246 71.4664C188.793 69.8841 187.888 68.5279 186.757 67.3977C185.626 66.2675 184.268 65.5894 182.911 64.9113C181.327 64.2332 179.743 64.0071 177.933 64.0071C175.897 64.0071 174.087 64.2332 172.277 64.9113C169.109 66.2675 166.621 68.98 165.263 72.1445C164.584 73.9528 164.358 75.7611 164.358 77.5694C164.358 79.8297 164.584 81.8641 165.489 83.8984C166.168 85.7067 167.073 87.2889 168.431 88.6452C169.562 89.7754 171.146 90.9055 172.729 91.5837C174.539 92.2618 176.349 92.4878 178.159 92.4878C179.064 92.4878 180.196 92.4878 181.101 92.2618C182.232 92.0357 183.137 91.8097 184.268 91.5837C185.4 91.1316 186.305 90.6795 187.21 90.2274C188.115 89.5493 189.02 88.8712 189.925 87.9671L187.662 85.2546C187.436 84.8025 186.757 84.5765 186.305 84.5765C185.852 84.5765 185.4 84.8025 184.947 85.0286C184.495 85.2546 184.042 85.4807 183.363 85.9327C182.684 86.1588 182.006 86.6108 181.327 86.8369C180.422 87.0629 179.517 87.289 178.612 87.289C176.802 87.289 174.992 86.8369 173.634 85.4807C172.503 84.1244 171.598 82.5422 171.372 80.7339H188.341C189.472 80.0558 189.925 79.1516 190.151 78.2475ZM172.051 75.309C172.277 73.7267 172.956 72.1445 174.087 71.0143C175.218 69.8841 176.802 69.432 178.159 69.432C179.064 69.432 179.743 69.6581 180.648 69.8841C181.327 70.1101 181.779 70.5622 182.458 71.2403C182.911 71.6924 183.137 72.3705 183.363 73.0486C183.59 73.7267 183.59 74.4048 183.59 75.309H172.051ZM237.664 64.6853V84.5765C236.985 85.2546 236.08 85.9327 234.949 86.3848C234.044 86.8369 233.139 87.0629 232.008 87.0629C230.876 87.0629 229.745 86.6108 228.84 85.7067C228.161 84.5765 227.709 83.4463 227.709 82.0901V64.6853H220.242V82.3161C220.242 83.6724 220.469 85.2546 220.921 86.6108C221.374 87.741 221.826 88.8712 222.731 90.0014C223.636 90.9055 224.541 91.8097 225.673 92.2618C227.03 92.7138 228.388 93.1659 229.745 92.9399C230.65 92.9399 231.555 92.9399 232.234 92.7138C232.913 92.4878 233.818 92.2618 234.496 92.0357C235.175 91.8097 235.854 91.3576 236.306 90.9055C236.985 90.4535 237.438 90.0014 238.116 89.3233L238.569 91.3576C238.795 92.2618 239.7 92.7138 240.379 92.7138H244.904V64.6853H237.664ZM268.661 80.7339C268.208 80.0558 267.756 79.3777 267.077 78.6996C266.398 78.0214 265.719 77.5694 264.814 77.3433C264.136 76.8913 263.231 76.6652 262.326 76.4392C261.421 76.2131 260.742 75.9871 259.837 75.7611C259.158 75.535 258.479 75.309 257.8 75.083C257.122 74.8569 256.669 74.4048 256.217 74.1788C255.764 73.7267 255.538 73.2747 255.538 72.8226C255.538 72.1445 255.99 71.2403 256.443 70.7883C257.348 70.3362 258.253 69.8841 259.158 70.1101C259.837 70.1101 260.516 70.1101 261.194 70.3362C261.647 70.5622 262.326 70.7883 262.778 71.0143C263.231 71.2403 263.683 71.4664 264.136 71.6924C264.588 71.9184 264.814 71.9184 265.267 71.9184C265.493 71.9184 265.946 71.9184 266.172 71.6924C266.398 71.4664 266.624 71.2403 266.851 71.0143L268.434 68.3018C267.303 67.1717 265.946 66.2675 264.362 65.8154C262.552 65.1373 260.742 64.9113 258.932 64.9113C257.348 64.9113 255.764 65.1373 254.18 65.5894C253.049 66.0415 251.692 66.7196 250.787 67.3977C249.882 68.0758 249.203 69.206 248.75 70.1101C248.298 71.2403 248.072 72.1445 248.072 73.2747C248.072 74.4048 248.298 75.535 248.75 76.4392C249.203 77.3433 249.655 78.0214 250.334 78.6996C251.013 79.3777 251.692 79.8297 252.37 80.2818C253.049 80.7339 253.954 80.9599 254.859 81.412C255.764 81.638 256.443 81.8641 257.348 82.0901C258.027 82.3161 258.705 82.5422 259.384 82.7682C260.063 82.9943 260.516 83.4463 260.968 83.6724C261.421 84.1244 261.647 84.5765 261.647 85.2546C261.647 85.7067 261.647 85.9327 261.421 86.3848C261.194 86.8369 260.968 87.0629 260.742 87.289C260.289 87.515 259.837 87.741 259.384 87.9671C258.705 88.1931 258.253 88.1931 257.574 88.1931C256.669 88.1931 255.99 88.1931 255.085 87.741C254.407 87.515 253.954 87.289 253.502 87.0629C253.049 86.8369 252.597 86.6108 252.144 86.3848C251.692 86.1588 251.239 85.9327 251.013 85.9327C250.56 85.9327 250.334 85.9327 249.882 86.1588C249.655 86.3848 249.429 86.6108 249.203 86.8369L247.393 89.5493C248.072 90.0014 248.524 90.4535 249.203 90.9055C249.882 91.3576 250.787 91.5837 251.465 92.0357C252.37 92.2618 253.275 92.7138 254.18 92.7138C255.085 92.9399 255.99 92.9399 257.122 92.9399C258.705 92.9399 260.516 92.7138 262.099 92.2618C263.457 91.8097 264.588 91.1316 265.719 90.2274C266.624 89.5493 267.529 88.4191 267.982 87.289C268.434 86.1588 268.661 84.8026 268.661 83.6724C269.113 82.5422 269.113 81.638 268.661 80.7339Z" fill="white"/>
<path d="M161.417 74.8569V92.4878H153.95V74.8569C153.95 73.5007 153.724 72.3705 152.819 71.2403C151.914 70.3362 150.783 69.8841 149.652 69.8841C148.52 69.8841 147.615 70.1101 146.71 70.5622C145.805 71.0143 144.9 71.6924 143.995 72.3705V92.2618H136.529V64.6853H141.054C141.959 64.6853 142.638 65.1373 142.864 66.0415L143.316 68.0758C143.995 67.6237 144.448 66.9456 145.126 66.4936C145.805 66.0415 146.258 65.5894 146.937 65.3634C147.615 64.9113 148.294 64.6853 149.199 64.6853C150.104 64.4592 151.009 64.4592 151.688 64.4592C153.045 64.4592 154.403 64.6853 155.76 65.1373C156.892 65.5894 157.797 66.2675 158.702 67.3977C159.607 68.3019 160.059 69.432 160.512 70.7883C161.19 71.9184 161.417 73.5007 161.417 74.8569Z" fill="white"/>
<path d="M119.56 57H111.189L97.8396 91.5837V92.2618H103.948C104.627 92.2618 105.08 92.0357 105.758 91.5837C106.211 91.3576 106.437 90.9056 106.663 90.4535L108.7 84.3505L109.379 82.0901H121.37L122.049 84.3505L124.085 90.4535C124.311 90.9056 124.537 91.3576 124.99 91.8097C125.442 92.2618 126.121 92.2618 126.8 92.2618H133.135L119.56 57ZM111.415 76.4392L113.904 69.206C114.13 68.5279 114.356 67.8498 114.582 66.9456C114.809 66.0415 115.035 65.1373 115.261 64.2332C115.487 65.1373 115.94 66.0415 116.166 66.9456C116.392 67.8498 116.619 68.5279 116.845 69.206L119.334 76.6652H111.415V76.4392Z" fill="white"/>
<path d="M203.047 79.6037C208.251 82.3161 209.609 86.3848 209.609 92.4878H216.849C216.622 83.6724 208.704 78.9256 206.215 77.5694C200.785 74.6309 199.427 70.7883 199.427 64.9113V64.6853H192.187V64.9113C192.187 72.1445 199.201 77.5694 203.047 79.6037Z" fill="white"/>
<path d="M199.88 92.4878C200.106 85.2546 204.405 81.8641 208.477 79.8297C212.776 77.5694 217.527 71.9184 217.527 65.1373V64.6853H210.287V64.9113C210.287 71.2403 206.441 73.9528 201.69 76.6652C196.26 80.0558 192.866 85.9327 192.64 92.4878H199.88Z" fill="#00ADEE"/>
</svg>
