<svg width="24" height="24" viewBox="0 0 24 24" fill="none" xmlns="http://www.w3.org/2000/svg">
<path opacity="0.4" d="M15.352 4H8.648C5.736 4 4 5.736 4 8.648V15.344C4 18.264 5.736 20 8.648 20H15.344C18.256 20 19.992 18.264 19.992 15.352V8.648C20 5.736 18.264 4 15.352 4Z" fill="white"/>
<path d="M19.44 12.1841H16.656C15.872 12.1841 15.176 12.6161 14.824 13.3201L14.152 14.6481C13.992 14.9681 13.672 15.1681 13.32 15.1681H10.696C10.448 15.1681 10.096 15.1121 9.864 14.6481L9.192 13.3281C8.84 12.6321 8.136 12.1921 7.36 12.1921H4.56C4.248 12.1921 4 12.4401 4 12.7521V15.3601C4 18.2641 5.744 20.0001 8.656 20.0001H15.36C18.104 20.0001 19.792 18.4961 20 15.8241V12.7441C20 12.4401 19.752 12.1841 19.44 12.1841Z" fill="white"/>
<path d="M13.2431 8.64002H10.7631C10.4511 8.64002 10.2031 8.39202 10.2031 8.08002C10.2031 7.76802 10.4511 7.52002 10.7631 7.52002H13.2431C13.5551 7.52002 13.8031 7.76802 13.8031 8.08002C13.8031 8.39202 13.5471 8.64002 13.2431 8.64002Z" fill="white"/>
<path d="M13.8661 10.872H10.1381C9.82612 10.872 9.57812 10.624 9.57812 10.312C9.57812 9.99995 9.82612 9.75195 10.1381 9.75195H13.8581C14.1701 9.75195 14.4181 9.99995 14.4181 10.312C14.4181 10.624 14.1701 10.872 13.8661 10.872Z" fill="white"/>
</svg>
