<svg width="204" height="44" viewBox="0 0 204 44" fill="none" xmlns="http://www.w3.org/2000/svg">
<path d="M31.1108 43.7315L27.6798 38.9346L30.9736 33.7265C33.8557 29.4765 38.3847 29.021 40.4433 29.0666C48.2387 29.0666 54.259 38.7975 56.2262 43.7315H31.1108Z" fill="white"/>
<path d="M27.8248 0L0 43.7302H24.6877L40.2368 19.0724L27.8248 0Z" fill="white"/>
<path d="M67.6622 43.7315H63.3656L69.9123 24.7672H75.0793L81.6168 43.7315H77.3202L72.5699 29.1008H72.4217L67.6622 43.7315ZM67.3936 36.2772H77.5425V39.4071H67.3936V36.2772Z" fill="white"/>
<path d="M99.7408 31.4065H95.685C95.6109 30.8818 95.4596 30.4157 95.2312 30.0083C95.0028 29.5947 94.7096 29.2428 94.3515 28.9527C93.9935 28.6625 93.5799 28.4403 93.1107 28.2859C92.6477 28.1316 92.1446 28.0544 91.6013 28.0544C90.6198 28.0544 89.7648 28.2983 89.0363 28.786C88.3079 29.2675 87.743 29.9712 87.3418 30.8972C86.9405 31.817 86.7399 32.9344 86.7399 34.2493C86.7399 35.6013 86.9405 36.7371 87.3418 37.657C87.7492 38.5768 88.3172 39.2713 89.0456 39.7404C89.774 40.2096 90.6167 40.4442 91.5736 40.4442C92.1106 40.4442 92.6076 40.3732 93.0644 40.2312C93.5274 40.0892 93.9379 39.8824 94.296 39.6108C94.654 39.333 94.9503 38.9966 95.1849 38.6015C95.4257 38.2064 95.5924 37.7557 95.685 37.2495L99.7408 37.268C99.6358 38.1385 99.3735 38.978 98.9537 39.7867C98.5401 40.5893 97.9814 41.3085 97.2777 41.9443C96.5801 42.574 95.7467 43.074 94.7775 43.4444C93.8145 43.8086 92.7249 43.9907 91.5087 43.9907C89.8173 43.9907 88.3048 43.608 86.9714 42.8425C85.6441 42.077 84.5947 40.9689 83.823 39.5182C83.0575 38.0675 82.6748 36.3112 82.6748 34.2493C82.6748 32.1813 83.0637 30.4219 83.8415 28.9712C84.6194 27.5204 85.675 26.4154 87.0084 25.6561C88.3418 24.8906 89.842 24.5079 91.5087 24.5079C92.6076 24.5079 93.6262 24.6622 94.5645 24.9709C95.509 25.2796 96.3455 25.7302 97.0739 26.3228C97.8024 26.9093 98.395 27.6285 98.8518 28.4804C99.3148 29.3323 99.6112 30.3077 99.7408 31.4065Z" fill="white"/>
<path d="M102.616 43.7315V24.7672H110.098C111.53 24.7672 112.753 25.0234 113.765 25.5357C114.784 26.042 115.558 26.7611 116.089 27.6933C116.626 28.6193 116.895 29.7089 116.895 30.962C116.895 32.2214 116.623 33.3048 116.08 34.2123C115.537 35.1136 114.75 35.805 113.719 36.2865C112.694 36.768 111.453 37.0088 109.996 37.0088H104.987V33.7863H109.348C110.113 33.7863 110.749 33.6814 111.255 33.4715C111.762 33.2616 112.138 32.9468 112.385 32.527C112.638 32.1072 112.765 31.5855 112.765 30.962C112.765 30.3324 112.638 29.8015 112.385 29.3693C112.138 28.9372 111.759 28.61 111.246 28.3878C110.74 28.1594 110.101 28.0452 109.329 28.0452H106.626V43.7315H102.616ZM112.857 35.1012L117.571 43.7315H113.145L108.533 35.1012H112.857Z" fill="white"/>
<path d="M117.828 24.7672H122.319L126.643 32.9344H126.828L131.153 24.7672H135.644L128.727 37.0273V43.7315H124.745V37.0273L117.828 24.7672Z" fill="white"/>
<path d="M137.834 43.7315V24.7672H141.843V40.4257H149.973V43.7315H137.834Z" fill="white"/>
<path d="M164.343 24.7672H168.352V37.0828C168.352 38.4657 168.022 39.6756 167.361 40.7127C166.707 41.7498 165.79 42.5585 164.611 43.1388C163.432 43.7129 162.058 44 160.49 44C158.916 44 157.54 43.7129 156.361 43.1388C155.181 42.5585 154.265 41.7498 153.61 40.7127C152.956 39.6756 152.629 38.4657 152.629 37.0828V24.7672H156.638V36.7402C156.638 37.4625 156.796 38.1045 157.111 38.6663C157.432 39.2281 157.882 39.6695 158.463 39.9905C159.043 40.3115 159.719 40.472 160.49 40.472C161.268 40.472 161.944 40.3115 162.518 39.9905C163.099 39.6695 163.546 39.2281 163.861 38.6663C164.182 38.1045 164.343 37.4625 164.343 36.7402V24.7672Z" fill="white"/>
<path d="M175.41 24.7672L179.235 31.2306H179.383L183.226 24.7672H187.754L181.966 34.2493L187.884 43.7315H183.272L179.383 37.2588H179.235L175.346 43.7315H170.753L176.688 34.2493L170.864 24.7672H175.41Z" fill="white"/>
<path d="M190.291 43.7315V24.7672H203.07V28.073H194.301V32.5918H202.412V35.8976H194.301V40.4257H203.107V43.7315H190.291Z" fill="white"/>
</svg>
