<svg width="300" height="150" viewBox="0 0 300 150" fill="none" xmlns="http://www.w3.org/2000/svg">
<path d="M100.946 65.6064H78.1932V72.3662H94.3309C93.5313 81.828 85.6569 85.8893 78.2205 85.8893C75.8647 85.8996 73.5304 85.44 71.3539 84.5372C69.1775 83.6344 67.2025 82.3065 65.5442 80.631C63.8859 78.9556 62.5776 76.9662 61.6956 74.7789C60.8136 72.5917 60.3757 70.2504 60.4073 67.8918C60.4073 57.6585 68.3199 49.7797 78.2423 49.7797C85.8968 49.7797 90.4073 54.6653 90.4073 54.6653L95.1323 49.7634C95.1323 49.7634 89.0625 43 77.9952 43C63.902 43 53 54.9091 53 67.7717C53 80.3759 63.255 92.6672 78.3514 92.6672C91.6304 92.6672 101.351 83.5584 101.351 70.0899C101.351 67.2477 100.939 65.6064 100.939 65.6064H100.946Z" fill="#4885ED"/>
<path d="M119.586 60.7099C110.249 60.7099 103.557 68.0192 103.557 76.5403C103.557 85.1905 110.045 92.6344 119.695 92.6344C128.429 92.6344 135.584 85.9511 135.584 76.7259C135.584 66.1723 127.26 60.7081 119.586 60.7081V60.7099ZM119.677 66.9802C124.267 66.9802 128.618 70.6976 128.618 76.6858C128.618 82.5449 124.285 86.3696 119.655 86.3696C114.567 86.3696 110.568 82.2901 110.568 76.6385C110.568 71.107 114.53 66.9802 119.691 66.9802H119.677Z" fill="#DB3236"/>
<path d="M154.444 60.7099C145.106 60.7099 138.415 68.0192 138.415 76.5403C138.415 85.1905 144.903 92.6344 154.553 92.6344C163.287 92.6344 170.441 85.9511 170.441 76.7259C170.441 66.1723 162.118 60.7081 154.444 60.7081V60.7099ZM154.534 66.9802C159.125 66.9802 163.476 70.6976 163.476 76.6858C163.476 82.5449 159.143 86.3696 154.513 86.3696C149.424 86.3696 145.426 82.2901 145.426 76.6385C145.426 71.107 149.388 66.9802 154.549 66.9802H154.534Z" fill="#F4C20D"/>
<path d="M188.632 60.7281C180.062 60.7281 173.327 68.243 173.327 76.6786C173.327 86.2859 181.136 92.6581 188.483 92.6581C193.027 92.6581 195.444 90.8512 197.206 88.7787V91.9266C197.206 97.4345 193.866 100.733 188.825 100.733C183.955 100.733 181.512 97.107 180.647 95.0508L174.519 97.5982C176.693 102.202 181.069 107 188.876 107C197.417 107 203.891 101.627 203.891 90.3563V61.6871H197.232V64.3909C195.178 62.1711 192.365 60.7281 188.636 60.7281H188.632ZM189.25 66.9875C193.452 66.9875 197.766 70.5793 197.766 76.7131C197.766 82.9488 193.459 86.3842 189.158 86.3842C184.589 86.3842 180.338 82.6722 180.338 76.7714C180.338 70.643 184.754 66.9875 189.25 66.9875Z" fill="#4885ED"/>
<path d="M233.651 60.6899C225.567 60.6899 218.78 67.1312 218.78 76.6294C218.78 86.6844 226.345 92.6472 234.408 92.6472C241.154 92.6472 245.312 88.9534 247.766 85.6418L242.254 81.9699C240.824 84.1898 238.432 86.3642 234.443 86.3642C229.961 86.3642 227.901 83.9078 226.623 81.5241L248 72.6446L246.91 70.0426C244.845 64.9478 240.026 60.6899 233.651 60.6899ZM233.929 66.8292C236.842 66.8292 238.937 68.3795 239.828 70.2391L225.551 76.2128C224.933 71.5874 229.313 66.8292 233.91 66.8292H233.929Z" fill="#DB3236"/>
<path d="M208.572 91.701H215.594V44.6522H208.572V91.701Z" fill="#3CBA54"/>
</svg>
