<svg width="300" height="150" viewBox="0 0 300 150" fill="none" xmlns="http://www.w3.org/2000/svg">
<path d="M56.1538 45H116.312V104.926H56.1538V45Z" fill="white"/>
<path d="M146.392 75.0356L116.312 45V105L146.392 75.0356ZM86.2315 75.0356L116.312 45H56.1538L86.2315 75.0356ZM26 75.0356L56.1538 105V45L26 75.0356ZM86.2315 75.0356L56.1538 105H116.312L86.2315 75.0356Z" fill="#DB0011"/>
<path d="M178.437 77.2805H164.872V90.6168H158.091V59.383H164.872V72.1937H178.437V59.383H185.218V90.6191H178.437V77.2805ZM201.599 91.2315C194.818 91.2315 189.269 88.5144 189.18 81.0534H195.961C196.05 84.3874 197.986 86.4052 201.684 86.4052C204.412 86.4052 207.587 85.0021 207.587 81.9509C207.587 79.4943 205.474 78.7928 201.953 77.7193L199.663 77.1046C194.731 75.7015 189.799 73.7705 189.799 68.1558C189.799 61.2249 196.316 58.8551 202.219 58.8551C208.295 58.8551 213.581 60.9598 213.666 67.893H206.882C206.619 65.0868 204.944 63.4387 201.774 63.4387C199.22 63.4387 196.752 64.775 196.752 67.5634C196.752 69.844 198.865 70.5478 203.269 71.9509L205.912 72.7416C211.285 74.4119 214.721 76.2516 214.721 81.5166C214.632 88.5367 207.763 91.256 201.597 91.256L201.599 91.2315ZM218.513 59.4721H229.435C231.46 59.383 233.575 59.4721 235.601 59.824C239.388 60.7015 242.295 63.158 242.295 67.3696C242.295 71.4053 239.741 73.4231 236.041 74.3897C240.289 75.1803 243.419 77.285 243.419 81.9353C243.419 89.0623 236.372 90.6213 230.912 90.6213H218.582L218.513 59.4721ZM229.435 72.4565C232.431 72.4565 235.511 71.8418 235.511 68.2249C235.511 64.9776 232.694 64.1001 229.877 64.1001H225.122V72.4364L229.435 72.4565ZM230.052 85.9687C233.222 85.9687 236.305 85.2672 236.305 81.403C236.305 77.5389 233.662 76.8373 230.403 76.8373H225.03V85.962L230.052 85.9687ZM261.055 91.2338C250.927 91.2338 246.433 84.8284 246.433 75.2649C246.433 65.7015 251.455 58.7705 261.406 58.7705C267.659 58.7705 273.736 61.5767 273.913 68.5968H266.866C266.513 65.4387 264.4 63.8596 261.404 63.8596C255.238 63.8596 253.389 70.4409 253.389 75.4409C253.389 80.4409 255.238 86.2338 261.14 86.2338C264.225 86.2338 266.513 84.5634 266.953 81.4075H274C273.296 88.6012 267.57 91.2338 261.033 91.2338H261.055Z" fill="white"/>
</svg>
