<svg width="94" height="94" viewBox="0 0 94 94" fill="none" xmlns="http://www.w3.org/2000/svg">
<path d="M77.8309 79.2291H47.9788C43.1394 79.2291 39.174 75.2671 39.174 70.4242C39.174 65.5815 43.1361 61.6194 47.9788 61.6194H66.8217C69.243 61.6191 71.2241 59.638 71.2241 57.2166C71.2241 54.7954 73.2052 52.8143 75.6266 52.8143C78.048 52.8143 80.0291 50.8332 80.0291 48.412C80.0291 45.9907 78.048 44.0096 75.6266 44.0096H59.7778M6.69671 28.8182H10.8024C13.2237 28.8182 15.2048 30.7992 15.2048 33.2205C15.2048 35.6419 17.1859 37.623 19.6073 37.6234H29.0274C32.5399 37.6234 35.4139 40.4971 35.4139 44.0099C35.4139 47.5226 32.5392 50.3966 29.0274 50.3966C26.8751 50.3966 25.1144 52.1574 25.1144 54.3095C25.1144 56.4618 23.3535 58.2227 21.2014 58.2229H4.39804M74.5411 11.4122C66.6567 5.31071 56.9694 2 47 2C22.1471 2 2 22.1471 2 47C2 71.8529 22.1471 92 47 92C71.8529 92 92 71.8529 92 47C92 36.9654 88.6459 27.2187 82.4712 19.309M64.6023 24.2025L69.7975 29.3975M58.1087 29.3977L84.1613 3.34488C85.9545 1.55168 88.8618 1.55168 90.6552 3.34506C92.4484 5.13827 92.4484 8.04564 90.6552 9.83884L64.6024 35.8914M58.1087 29.3977L64.6024 35.8914M58.1087 29.3977C48.2628 31.6673 51.307 39.8143 49.8869 44.1133C54.8354 45.9401 62.3328 45.7373 64.6024 35.8914" stroke="white" stroke-width="4" stroke-miterlimit="2.6131" stroke-linecap="round" stroke-linejoin="round"/>
</svg>
