<svg width="96" height="96" viewBox="0 0 96 96" fill="none" xmlns="http://www.w3.org/2000/svg">
<path d="M13.6531 3L3 13.6531H9.2449V30.5404H18.0612V13.6531H24.3061L13.6531 3Z" stroke="white" stroke-width="4" stroke-miterlimit="10" stroke-linecap="round" stroke-linejoin="round"/>
<path d="M82.3474 3L71.6943 13.6531H77.9392V30.5404H86.7556V13.6531H93.0005L82.3474 3Z" stroke="white" stroke-width="4" stroke-miterlimit="10" stroke-linecap="round" stroke-linejoin="round"/>
<path d="M47.9997 64.1116C52.0796 64.1116 55.387 60.8042 55.387 56.7243C55.387 52.6443 52.0796 49.3369 47.9997 49.3369C43.9197 49.3369 40.6123 52.6443 40.6123 56.7243C40.6123 60.8042 43.9197 64.1116 47.9997 64.1116Z" stroke="white" stroke-width="4" stroke-miterlimit="10" stroke-linecap="round" stroke-linejoin="round"/>
<path d="M61.6808 73.0019C59.346 67.7694 54.1002 64.1211 48.0001 64.1211C41.9001 64.1211 36.6542 67.7692 34.3193 73.0019" stroke="white" stroke-width="4" stroke-miterlimit="10" stroke-linecap="round" stroke-linejoin="round"/>
<path d="M48.0005 78.7744C58.5503 78.7744 67.1025 70.2221 67.1025 59.6724C67.1025 49.1226 58.5503 40.5703 48.0005 40.5703C37.4507 40.5703 28.8984 49.1226 28.8984 59.6724C28.8984 70.2221 37.4507 78.7744 48.0005 78.7744Z" stroke="white" stroke-width="4" stroke-miterlimit="10" stroke-linecap="round" stroke-linejoin="round"/>
<path d="M75.6344 66.5053L81.3281 65.5988L81.3232 53.7197L75.6295 52.8177C74.9363 50.0125 73.8287 47.3709 72.3733 44.9624L75.7573 40.2967L67.3546 31.8997L62.697 35.2831C60.2857 33.825 57.6403 32.7158 54.831 32.0222L53.927 26.3438L42.0479 26.3487L41.1497 32.0178C38.3344 32.711 35.6834 33.8213 33.2674 35.282L28.6248 31.9148L20.2278 40.3175L23.5947 44.9521C22.1314 47.3711 21.0195 50.0257 20.3259 52.8449L14.6719 53.7451L14.6768 65.6242L20.331 66.52C21.0268 69.3386 22.1408 71.9925 23.6059 74.4104L20.2429 79.047L28.6456 87.444L33.2863 84.0727C35.7032 85.5314 38.3549 86.6399 41.1706 87.3309L42.0729 93L53.9519 92.9952L54.8518 87.3162C57.6603 86.6204 60.3048 85.5094 62.7152 84.0494L67.375 87.4293L75.772 79.0265L72.3839 74.3628C73.8377 71.9534 74.9433 69.3111 75.6344 66.5053Z" stroke="white" stroke-width="4" stroke-miterlimit="10" stroke-linecap="round" stroke-linejoin="round"/>
</svg>
