<svg width="96" height="96" viewBox="0 0 96 96" fill="none" xmlns="http://www.w3.org/2000/svg">
<path d="M64.4712 24.3896L67.0255 14.1691" stroke="white" stroke-width="4" stroke-miterlimit="10" stroke-linecap="round" stroke-linejoin="round"/>
<path d="M28.9741 14.1691L31.5285 24.3896" stroke="white" stroke-width="4" stroke-miterlimit="10" stroke-linecap="round" stroke-linejoin="round"/>
<path d="M42.3985 21.6719L38.6641 6.73414C43.6434 1.75483 52.3569 1.75483 57.3362 6.73414L53.6018 21.6719" stroke="white" stroke-width="4" stroke-miterlimit="10" stroke-linecap="round" stroke-linejoin="round"/>
<path d="M87.3982 51.5479H8.60165C5.50805 51.5479 3 49.0398 3 45.9462C3 42.8526 5.50805 40.3445 8.60165 40.3445H87.3982C90.4918 40.3445 92.9999 42.8526 92.9999 45.9462C92.9999 49.0398 90.4918 51.5479 87.3982 51.5479Z" stroke="white" stroke-width="4" stroke-miterlimit="10" stroke-linecap="round" stroke-linejoin="round"/>
<path d="M39.3941 9.65534C25.131 13.21 14.2824 25.3949 12.7183 40.3447" stroke="white" stroke-width="4" stroke-miterlimit="10" stroke-linecap="round" stroke-linejoin="round"/>
<path d="M83.2818 40.3447C81.7178 25.395 70.8691 13.21 56.606 9.65534" stroke="white" stroke-width="4" stroke-miterlimit="10" stroke-linecap="round" stroke-linejoin="round"/>
<path d="M10.6558 51.5478V63.1245H17.178C17.9605 66.363 19.2364 69.4004 20.9269 72.1662L16.3123 76.7808L26.875 87.3433L31.4896 82.7286C34.2553 84.4192 37.2927 85.6953 40.5312 86.4778V93H55.469V86.4778C58.7075 85.6953 61.7449 84.4192 64.5106 82.7286L69.1252 87.3433L79.6879 76.7808L75.0732 72.1662C76.7638 69.4004 78.0397 66.363 78.8222 63.1245H85.3444V51.5478" stroke="white" stroke-width="4" stroke-miterlimit="10" stroke-linecap="round" stroke-linejoin="round"/>
<path d="M68.1159 51.548C68.391 52.8745 68.5392 54.2473 68.5392 55.6559C68.5392 66.9995 59.3434 76.1953 47.9998 76.1953C36.6561 76.1953 27.4604 66.9995 27.4604 55.6559C27.4604 54.2473 27.6087 52.8745 27.8836 51.548" stroke="white" stroke-width="4" stroke-miterlimit="10" stroke-linecap="round" stroke-linejoin="round"/>
</svg>
