<svg width="96" height="96" viewBox="0 0 96 96" fill="none" xmlns="http://www.w3.org/2000/svg">
<path d="M40.9979 65.7559H3" stroke="white" stroke-width="4" stroke-miterlimit="10" stroke-linecap="round" stroke-linejoin="round"/>
<path d="M55.002 65.7559H92.9998" stroke="white" stroke-width="4" stroke-miterlimit="10" stroke-linecap="round" stroke-linejoin="round"/>
<path d="M55.0022 65.7557C55.0022 69.6229 51.8673 72.7578 48.0001 72.7578C44.1329 72.7578 40.998 69.6229 40.998 65.7557C40.998 61.8885 44.1329 58.7537 48.0001 58.7537C51.8673 58.7537 55.0022 61.8885 55.0022 65.7557Z" stroke="white" stroke-width="4" stroke-miterlimit="10" stroke-linecap="round" stroke-linejoin="round"/>
<path d="M63.9656 85.998H3" stroke="white" stroke-width="4" stroke-miterlimit="10" stroke-linecap="round" stroke-linejoin="round"/>
<path d="M77.9697 85.998H92.9999" stroke="white" stroke-width="4" stroke-miterlimit="10" stroke-linecap="round" stroke-linejoin="round"/>
<path d="M77.97 85.9979C77.97 89.8651 74.8349 93 70.9679 93C67.1007 93 63.9658 89.8651 63.9658 85.9979C63.9658 82.1307 67.1007 78.9959 70.9679 78.9959C74.8349 78.9959 77.97 82.1307 77.97 85.9979Z" stroke="white" stroke-width="4" stroke-miterlimit="10" stroke-linecap="round" stroke-linejoin="round"/>
<path d="M61.4975 28.8417C61.4975 21.511 55.3603 15.5867 47.9542 15.9368C41.3821 16.2477 36.0361 21.553 35.6779 28.1228C35.455 32.2111 37.1463 35.9177 39.9341 38.4313C41.3013 39.6641 42.1172 41.3926 42.1172 43.2335V43.4792C42.1172 48.9262 35.6959 51.8985 31.5923 48.3164C26.1654 43.5794 22.7368 36.611 22.7368 28.8417C22.7368 14.5702 34.3063 3.00069 48.578 3.00069C48.8217 3.00069 49.0648 3.0048 49.307 3.01152L49.2971 3.00069H93.0001V35.3043H73.6026C72.2827 40.4302 69.4298 44.9407 65.5618 48.3171C61.459 51.8987 55.0386 48.9249 55.0386 43.4788V43.2327C55.0386 41.428 55.7948 39.6981 57.1446 38.5004C59.8127 36.1328 61.4975 32.6811 61.4975 28.8417Z" stroke="white" stroke-width="4" stroke-miterlimit="10" stroke-linecap="round" stroke-linejoin="round"/>
<path d="M15.7889 15.9212C12.2208 15.9212 9.32812 18.8138 9.32812 22.382C9.32812 25.9501 12.2208 28.8428 15.7889 28.8428H22.7366V28.8407" stroke="white" stroke-width="4" stroke-miterlimit="10" stroke-linecap="round" stroke-linejoin="round"/>
<path d="M49.2967 2.99991H48.5776C48.8217 2.99991 49.0646 3.00402 49.3068 3.01074L49.2967 2.99991Z" stroke="white" stroke-width="4" stroke-miterlimit="10" stroke-linecap="round" stroke-linejoin="round"/>
<path d="M48.5779 3.00035H9.46076C5.89251 3.00035 3 5.89286 3 9.46111C3 13.0292 5.89251 15.9219 9.46076 15.9219H26.1942" stroke="white" stroke-width="4" stroke-miterlimit="10" stroke-linecap="round" stroke-linejoin="round"/>
</svg>
