<svg width="300" height="150" viewBox="0 0 300 150" fill="none" xmlns="http://www.w3.org/2000/svg">
<path d="M265.8 88.1491V97.9012C260.393 100.609 255.251 101.963 250.118 101.963C235.923 101.963 227.402 93.569 227.402 83.0045C227.402 71.6278 237.136 62.1487 249.591 62.1487C252.264 62.1436 254.917 62.6009 257.434 63.5003C259.192 64.0418 260.269 64.7188 261.355 64.7188C262.305 64.7188 262.571 63.0942 262.707 62.1465H264.058L265.268 75.2945H263.646C263.09 72.9252 261.866 70.7636 260.127 69.0668C257.59 66.4945 254.048 65.1407 249.983 65.1407C241.462 65.1407 236.464 71.9099 236.464 82.0681C236.464 92.0865 242.543 98.9956 250.659 98.9956C253.194 98.9641 255.689 98.3634 257.961 97.2379V87.1969C257.961 83.9477 257.421 82.7518 252.824 82.7518V81.2626H270V82.7518C265.669 82.7518 265.809 84.1057 265.809 88.1672L265.8 88.1491ZM218.606 72.1694V101.277H216.307L187.246 71.2284C187.359 71.9888 187.408 72.7583 187.386 73.53V91.8067C187.386 97.5199 187.386 99.5236 192.523 99.5236V101.013H178.851V99.5236C183.993 99.5236 183.993 97.0867 183.993 91.8067V70.9577C183.993 67.8393 183.993 64.4593 178.585 64.4593V62.9746H191.428L215.361 87.6211C215.241 86.9513 215.196 86.2701 215.228 85.5904V72.1806C215.228 66.7653 215.363 64.4593 210.226 64.4593V62.9746H223.88V64.4593C218.878 64.4593 218.608 66.6254 218.608 72.1806L218.606 72.1694ZM152.489 101.017V99.5281C155.734 99.5281 158.036 99.2573 158.036 94.5189V69.4639C158.036 64.5901 156.274 64.4548 152.489 64.4548V62.9701H171.686V64.4548C167.761 64.4548 166.139 64.5901 166.139 69.4639V94.5166C166.139 99.2551 168.166 99.5258 171.686 99.5258V101.015L152.489 101.017Z" fill="#033971"/>
<path d="M128.973 62.3428C126.307 59.6735 123.266 58.3422 120.981 55.6797C119.821 54.5515 118.854 53.2811 118.124 51.8551C117.374 50.9976 116.472 50.2891 115.465 49.7566L116.038 51.4715H115.846C114.861 51.3758 113.931 50.9778 113.181 50.332L113.947 49.5648C113.658 49.2489 113.226 49.1023 112.809 49.1813C109.753 48.6081 106.91 50.3207 103.864 50.8961V51.2797C105.765 51.8528 106.155 54.1408 107.293 55.2803H108.431C108.814 55.2803 109.377 55.6639 109.783 55.6639C109.715 55.2667 109.587 54.8809 109.4 54.5244C109.535 54.3439 109.744 54.2378 109.97 54.2378C110.195 54.2378 110.405 54.3439 110.54 54.5244C111.486 55.0975 112.831 54.1408 113.771 55.6639C112.662 55.5556 111.545 55.7541 110.54 56.237C110.54 56.4288 111.112 56.8011 110.923 57.1847C109.968 56.8011 108.827 57.1847 108.444 56.4175L108.253 56.6093C109.492 58.0083 111.069 59.0688 112.836 59.669C115.314 60.0525 117.419 58.9018 119.872 59.4772C128.606 63.674 134.689 73.5841 134.689 83.4671C134.689 97.5695 126.697 103.274 121.564 103.274C120.454 103.217 119.386 102.822 118.509 102.134C119.19 99.589 119.51 96.9581 119.456 94.3226C119.456 86.1319 116.225 77.3681 111.817 72.7966C109.722 70.6982 107.433 68.9721 104.941 68.9721C103.803 68.9721 102.649 68.9721 101.885 69.9197C100.939 70.7208 100.443 71.9279 100.549 73.1644C98.7919 74.3017 96.719 74.8973 94.6506 74.8793C92.0169 74.799 89.4804 73.8646 87.4224 72.2167V69.3624C86.8592 69.1706 84.944 68.0086 85.8948 67.0677C86.3332 67.2261 86.7267 67.4886 87.0417 67.8326C86.8501 66.4787 86.8501 64.9782 85.8925 63.832C85.3557 63.869 84.8208 63.7347 84.3649 63.4484C84.0328 63.1606 83.7612 62.8095 83.5658 62.4155C83.3705 62.0215 83.2553 61.5926 83.2271 61.1537C83.7904 62.1013 84.7547 61.7268 85.3225 62.2931C84.3672 59.9984 84.7502 59.0575 83.031 55.63C82.648 53.9152 80.9356 52.9675 79.791 51.8054C79.2187 51.4219 79.0249 50.8487 78.2634 50.8487C77.4973 50.6569 77.4973 49.7092 77.4973 49.1339C77.8961 49.285 78.2769 49.4768 78.6351 49.707C77.4973 47.0377 76.7335 44.1833 74.2573 42.6535L73.685 43.0371H70.6319C71.1795 42.6761 71.7518 42.3602 72.3443 42.0804C72.0857 41.7916 71.7602 41.5708 71.3964 41.4374C71.0326 41.304 70.6416 41.2622 70.2579 41.3155C69.6856 41.5073 68.906 42.0826 68.1625 42.0826H68.1016C68.1016 41.5186 67.9101 40.7288 69.057 40.3678C67.9214 40.1783 66.7633 40.1783 65.6277 40.3678C65.4474 41.3155 64.8616 41.8976 64.8616 42.6625C64.3704 43.1296 63.922 43.6418 63.5255 44.1924C63.5255 43.0529 64.0888 41.8976 64.2916 40.7627C63.5255 40.9545 62.5724 41.5298 62.1961 41.5298C60.6685 40.7627 58.7668 40 58.0098 40C59.1589 40.7672 58.5821 42.0984 58.7758 43.0597L58.0098 42.6761C57.8182 41.9089 56.8719 41.3222 56.6579 40.3813C55.6321 40.4131 54.6394 40.7518 53.8076 41.3538V41.5456C54.1569 41.6046 54.4899 41.7365 54.785 41.9328C55.08 42.1291 55.3304 42.3855 55.52 42.6851C54.1681 42.6851 53.2286 42.112 51.906 42.112C51.9082 42.0601 51.8879 42.0104 51.8519 41.9766C51.8158 41.9428 51.7663 41.9202 51.7167 41.9224C51.1309 42.1932 50.5901 42.5836 50.1891 43.0732C48.877 44.0325 47.8838 45.3652 47.3388 46.8978C47.7286 46.8526 48.1232 46.9191 48.4767 47.0896C47.7106 47.2814 47.3388 48.2291 46.575 48.4434V51.3045C45.8143 51.9069 45.224 52.698 44.8626 53.5993C43.923 56.6228 43.7248 60.0571 43.7248 63.8816C43.6774 64.1378 43.5656 64.3776 43.4 64.5786C43.2345 64.7795 43.0206 64.9349 42.7784 65.0301V68.0898C43.3147 67.5415 43.8825 67.0293 44.4908 66.56V69.0082C44.1276 69.073 43.7973 69.2599 43.5544 69.538C43.3115 69.8161 43.1705 70.1688 43.1547 70.538C43.1547 71.3052 43.353 72.0678 43.353 72.8327C43.3237 73.1035 43.389 73.3743 43.5332 73.5999C43.5803 73.3638 43.6961 73.1468 43.8661 72.9766C44.0362 72.8063 44.2528 72.6903 44.4886 72.6432C44.8084 72.3815 45.2139 72.2481 45.6264 72.2686C45.1351 72.9003 44.7507 73.6084 44.4886 74.3648L43.9253 74.9289C43.8307 75.1094 43.7676 75.3035 43.7338 75.502C44.4973 79.3542 45.6462 83.1195 47.1631 86.7411C45.6354 89.2232 43.923 93.9796 42.7852 98.5533C42.3166 98.1467 41.7725 97.8367 41.184 97.6411C40.5955 97.4456 39.9743 97.3683 39.3559 97.4139C38.7536 97.4636 38.1691 97.6424 37.6419 97.9383C37.1147 98.2342 36.6573 98.6402 36.3006 99.1287C35.1853 98.5646 33.8447 98.7135 32.8758 99.5123C31.1634 101.042 31.1634 101.807 31.1634 102.947C30.4492 103.653 30.0369 104.612 30.0143 105.616C29.9168 107.163 30.3189 108.7 31.1612 110H60.1097C59.9166 109.363 59.5995 108.77 59.1769 108.256C58.6046 107.105 58.9854 105.587 58.9854 104.431C59.5044 103.286 60.1418 102.199 60.887 101.187C61.0786 100.613 60.887 100.613 61.0786 100.419L62.4147 100.036C63.1808 100.036 63.7666 99.4627 64.7061 99.4627C65.2784 100.419 65.2784 98.8986 66.2338 98.515C68.3292 98.1314 70.4246 98.515 71.5805 100.045C71.6119 100.242 71.6735 100.433 71.763 100.611H70.7536C69.6158 100.047 68.2864 99.4604 66.9345 100.047C66.9345 100.611 66.7543 100.611 66.7543 101.187V102.134C67.5203 102.134 68.1061 102.901 68.8407 103.274C69.422 102.604 70.2466 102.191 71.1321 102.134C71.4217 102.114 71.7125 102.152 71.9867 102.248C72.2609 102.343 72.5128 102.494 72.7271 102.69C72.9415 102.886 73.1138 103.124 73.2335 103.388C73.3532 103.653 73.4179 103.94 73.4236 104.23V106.329C74.2077 106.961 75.1135 107.412 76.0891 107.683C75.8097 108.254 75.1878 108.567 74.5614 108.45H73.0338C72.7026 108.337 72.475 108.035 72.4615 107.683C71.95 108.405 71.5039 109.172 71.1096 109.977H93.3798C92.9967 109.21 92.6137 108.624 92.4244 108.263C92.109 107.013 91.9806 105.724 92.0414 104.438L94.1278 101.577C95.2769 101.577 96.2233 101.193 98.3142 101.004C98.6972 100.431 98.3142 100.056 100.027 100.056C100.928 100.043 101.863 100.237 102.701 100.629C102.893 100.848 102.893 101.175 102.701 101.396C102.318 101.771 101.563 101.013 100.998 101.205C100.615 101.588 101.178 101.769 101.178 102.152C101.561 102.536 99.4656 101.769 99.4656 101.769C99.4656 101.769 99.0825 102.919 98.8932 103.299L100.031 104.449C100.414 105.013 99.4678 105.589 99.4678 106.164C99.0848 105.972 98.3187 105.397 98.3187 105.6C97.9357 107.13 98.3187 108.454 98.1272 109.984H100.223L100.403 106.758C100.594 104.853 102.881 101.403 104.222 101.403C104.92 101.453 105.585 101.721 106.124 102.168C106.507 102.935 107.476 103.308 107.476 103.698C107.476 104.088 106.912 104.271 105.948 104.271C105.565 104.271 105.565 103.698 104.993 103.314L103.855 104.465C103.855 104.465 105.191 105.605 105.191 106.369C105.227 106.725 105.176 107.084 105.043 107.416C104.91 107.747 104.699 108.042 104.427 108.274L103.289 105.979C102.717 105.979 101.762 107.119 101.762 107.694C101.762 108.461 101.378 108.845 101.378 109.989H113.174C114.527 109.969 115.849 109.574 116.993 108.849H119.284C124.043 108.849 127.842 107.495 131.271 104.084C135.854 99.4943 138.504 92.2715 138.504 85.2248C138.437 76.6538 135.01 68.4521 128.962 62.3879L128.973 62.3428ZM110.362 52.3966C109.979 51.8235 109.415 52.3966 109.01 52.3966C108.761 52.3996 108.513 52.3502 108.284 52.2515C108.055 52.1527 107.85 52.0069 107.681 51.8235C108.818 51.8235 109.393 51.2504 110.339 50.8668C111.105 51.4399 111.867 51.6339 112.435 52.3966H110.362ZM116.475 55.2509C115.911 54.4838 115.138 53.5361 114.379 53.5361C114.942 53.5361 115.731 52.963 116.671 52.963C117.054 53.9107 117.808 54.4928 118.023 55.2577L118.214 56.3972C118.048 56.067 117.795 55.7885 117.483 55.5917C117.17 55.3948 116.81 55.2872 116.441 55.2803L116.475 55.2509ZM85.0296 80.43L84.0833 80.8136C82.6286 80.9133 81.1934 80.435 80.0884 79.4823C80.7418 79.3469 81.3434 79.0152 81.8076 78.5346C82.6989 79.4376 83.8104 80.0918 85.0318 80.4323L85.0296 80.43ZM75.1382 78.3316C74.1919 78.5234 73.4258 77.5644 72.4728 77.1808C72.0897 76.0413 72.0897 74.8861 71.7067 74.3265C72.4728 74.8906 74.1852 74.8906 73.7931 76.6212C73.7999 77.1853 74.5637 77.5689 75.1382 78.327V78.3316ZM75.1382 84.6201C75.8734 84.9266 76.5748 85.3084 77.2314 85.7596H76.6591C74.5637 86.5268 72.84 85.1865 71.1434 84.0447C72.2429 83.6612 73.4011 83.4671 74.5682 83.4806L75.1382 84.6201ZM75.5213 81.5605C76.1972 81.1994 76.8799 80.9377 77.6167 80.7933C78.3828 81.5605 79.1444 82.8917 80.4737 83.6544C79.7076 83.6544 78.3783 83.6544 77.6167 83.0813C76.8281 82.7202 76.1161 82.2013 75.5213 81.5695V81.5605ZM73.4258 93.3839C73.4754 92.6957 73.9215 92.0978 74.5637 91.8541C75.7015 92.2377 76.6591 89.7557 77.8037 91.0869C78.2994 91.2336 78.8176 91.299 79.3314 91.2787C80.6675 91.8519 81.0438 92.9936 81.6228 93.948C80.6765 93.948 79.9037 93.948 79.3314 92.9913C79.1398 92.9913 78.7681 92.4272 78.5653 92.7995C77.619 93.5667 76.6636 92.2264 75.51 92.416C74.9557 93.0116 74.2257 93.4133 73.4236 93.5554L73.4258 93.3839ZM82.9342 73.1938C82.7426 73.9609 81.9788 73.1938 81.7963 73.1938H80.0772C79.8717 72.9153 79.74 72.5893 79.6941 72.2461C80.4602 72.0543 81.046 71.673 81.6048 72.0543C81.9788 72.6184 82.3709 73.1938 82.9567 73.1938H82.9342ZM79.3201 65.0031C79.4958 65.5491 79.755 66.0636 80.0862 66.5329C80.8522 66.1493 80.8522 67.106 81.0415 67.3001C81.3164 67.8416 81.5079 68.417 81.6138 69.0149C80.4647 69.0149 79.8947 68.4418 79.3224 67.3001C79.2255 66.5374 79.2255 65.7657 79.3224 65.0053L79.3201 65.0031ZM77.7925 74.3378L79.6851 76.0526C78.5473 76.0526 77.2179 76.6257 76.6298 75.4795C77.0653 75.1497 77.4581 74.767 77.7992 74.34L77.7925 74.3378ZM77.6122 59.863C77.6122 60.0548 77.2292 61.7674 77.2292 61.7674L75.7015 62.151L76.6479 57.9586C77.0467 58.5498 77.3711 59.1906 77.6122 59.863ZM50.5969 45.9546C51.0475 45.9659 51.4981 45.729 51.7347 45.3815C52.6901 45.1897 53.2624 44.242 54.4002 44.8084C55.1212 44.8851 55.831 45.0791 56.4956 45.3815C56.4724 45.5591 56.4954 45.7398 56.5626 45.9058C56.6297 46.0719 56.7386 46.2177 56.8787 46.3292C58.0165 46.3292 58.0165 47.4799 58.5911 48.4276C59.0864 48.5746 59.6025 48.6394 60.1187 48.6194C61.2566 49.003 62.2141 49.003 62.5859 49.5761C64.0054 48.7006 65.6908 48.3622 67.3401 48.6194C67.6555 47.8748 67.9101 47.1076 68.1061 46.3247C68.2977 46.8978 68.2977 46.3247 68.6785 46.3247C69.4445 45.7515 70.3976 44.7948 71.7337 45.1852C72.4998 45.7493 73.8201 45.377 74.5907 46.3247C75.163 47.0918 75.5371 48.2291 76.1184 49.1858C75.5461 50.3252 76.1184 51.8551 74.9805 52.4305L73.8314 53.5699C73.4574 53.5699 73.4574 53.9535 72.8851 53.9535C73.4574 55.3074 73.0766 57.1892 72.5021 58.543C72.8851 58.3512 73.4574 58.3512 73.4574 57.7758C73.5524 58.0219 73.5524 58.2947 73.4574 58.5408V59.1139C73.3718 60.1428 72.8941 61.0995 72.1213 61.7832C71.7382 62.9227 70.7694 64.4457 69.4625 64.6375V65.0211C72.1956 65.0662 74.8746 65.7838 77.263 67.1196V68.4734C74.9478 67.0535 72.3293 66.2036 69.6225 65.9936C69.6847 66.4466 69.6183 66.9079 69.431 67.3249C71.7225 68.4757 73.8021 69.4233 75.7038 71.1495V72.8643C73.7931 70.9599 71.7089 69.0397 69.2327 68.4802C69.0525 68.8637 68.2864 69.2473 68.0949 70.01C66.8399 68.963 65.355 68.2049 63.7643 67.8664C63.201 67.8664 62.818 65.768 62.818 65.768C63.2476 65.6088 63.6371 65.3572 63.9591 65.0309C64.281 64.7046 64.5276 64.3115 64.6814 63.8794H65.4474C66.0107 63.8794 66.0107 63.4958 66.0107 62.9227C66.0107 61.7832 63.5435 61.7832 62.3967 61.7832C61.0605 61.7832 60.1052 61.7832 59.3414 62.3473C58.9583 62.3473 59.1611 62.9204 59.1611 63.304C59.2986 63.5396 59.4931 63.7367 59.7267 63.8771C60.1097 63.8771 60.4927 63.4935 60.8645 63.4935C60.673 64.6443 61.056 65.2084 62.2006 65.7883L62.0204 67.7017C59.7289 67.7017 58.2013 68.6584 56.5047 69.4166C55.9633 69.0013 55.5112 68.481 55.1753 67.8867C52.8838 68.6539 48.8958 71.7113 48.8958 71.7113V70.3575C50.6149 68.8276 52.8906 68.0627 54.6098 67.1218V65.768C53.8437 65.3844 53.0821 65.768 52.3183 65.768C50.6374 65.9711 49.0467 66.6389 47.7264 67.704C47.7038 67.2527 47.643 66.8082 47.5348 66.3501C49.6303 65.1994 52.2935 64.2517 54.763 64.6353V63.8546C54.6052 63.4574 54.6052 62.8843 54.2222 62.8843C53.0844 61.7448 51.9308 60.03 51.9308 58.8837L52.6968 58.5001C52.3138 57.3607 51.9308 54.4996 52.6968 53.5496C51.6138 53.0458 50.6912 52.2516 50.0313 51.2549C49.6011 50.4102 49.2829 49.5128 49.085 48.5856C49.6663 47.4619 50.0246 47.0738 50.6127 45.9298L50.5969 45.9546ZM68.2887 81.5717C67.3333 80.9986 65.6232 80.8046 65.9972 79.6673C66.2874 79.042 66.7482 78.5117 67.3266 78.1375C67.4415 79.3303 67.7672 80.4932 68.2887 81.5717ZM56.4934 76.0481L55.9211 78.5301C55.2809 77.4057 54.8317 76.1827 54.5917 74.9109L56.4934 76.0481ZM54.0262 79.1055C52.7776 78.6127 51.7109 77.7469 50.9709 76.6257C50.6229 75.909 50.428 75.1274 50.3986 74.331C51.0408 74.3535 51.6221 74.7146 51.9262 75.2787V75.4705C52.8816 76.6212 53.8279 77.5734 54.0262 79.0965V79.1055ZM51.9308 81.4003C51.8538 82.4281 51.3763 83.3844 50.6014 84.0628C50.3596 84.2704 50.1045 84.4619 49.8376 84.6359C49.8376 83.4964 50.4099 82.5375 50.4099 81.5763C50.9732 81.3845 51.5319 81.0031 51.9195 81.3845L51.9308 81.4003ZM53.8324 83.695C54.0239 83.5032 54.2154 83.695 54.5985 83.695L53.8324 86.5493C52.8861 87.3165 51.541 86.9329 50.4076 86.9329C51.9172 86.5268 53.0596 84.8119 53.8234 83.6747L53.8324 83.695ZM47.1766 53.5699C47.487 52.9554 47.869 52.3798 48.3144 51.8551V54.1498L46.9625 54.5334L47.1766 53.5699ZM47.1766 57.3945L48.7042 56.8214L47.7196 57.9541C47.9111 59.8585 47.1563 61.1988 47.1563 62.9046L46.201 59.845C46.3902 58.9762 46.7192 58.1436 47.1789 57.381L47.1766 57.3945ZM46.9558 79.4733C47.1225 78.9408 47.4515 78.4737 47.9021 78.1195C48.4744 78.3113 48.8484 78.3113 49.6145 78.503C48.6592 79.4507 47.7038 79.8411 47.3231 80.9851C47.314 80.4548 47.1879 79.9313 46.9558 79.4552V79.4733ZM34.8068 105.004C34.3971 104.745 33.9482 104.554 33.4774 104.438C32.9051 105.577 33.4774 106.342 33.4774 107.674C33.4684 108.064 33.4053 108.45 33.2859 108.824C32.619 108.563 32.1233 107.99 31.934 107.295V104.235L33.6464 102.132C34.1457 102.399 34.5341 102.834 34.7425 103.361C34.9509 103.888 34.9657 104.472 34.7842 105.009L34.8068 105.004ZM39.1914 105.004C38.9999 104.237 38.4253 103.289 37.4723 103.289C36.7062 104.819 36.5259 105.388 37.2807 107.674C36.785 108.166 36.2037 108.576 35.5616 108.824C35.2488 107.905 35.1186 106.933 35.1785 105.963C35.165 104.666 35.3588 103.375 35.7508 102.139C36.3141 101.575 36.7062 100.609 37.2785 100.04H39.3649C38.4186 100.04 38.4186 100.988 38.4186 101.57C38.9909 101.762 39.7705 101.954 39.7705 102.924C39.7885 103.664 39.5947 104.395 39.2117 105.027L39.1914 105.004ZM43.9456 107.667C43.9456 106.719 44.5089 105.568 44.5089 104.431C44.0965 104.016 43.5625 103.748 42.9812 103.664C42.5306 103.98 42.276 104.465 42.2152 105.018C41.6428 106.157 40.5028 107.313 40.3135 108.448C40.2617 108.45 40.2121 108.43 40.1783 108.393C40.1445 108.357 40.122 108.308 40.1242 108.258C40.1242 106.354 40.3157 103.114 41.4603 101.778C42.4224 100.622 43.1727 100.622 44.3219 100.462L45.2682 100.62L44.5021 101.76C45.2682 102.143 46.4038 102.91 46.4038 104.054C46.4105 105.6 43.9366 107.696 43.9366 107.696L43.9456 107.667ZM51.1737 104.048L49.8376 100.595C48.3099 99.0655 46.6065 98.8805 45.6512 98.1246C44.8851 97.9328 44.8851 98.5082 44.5134 98.1246C44.4683 97.556 44.6711 96.9964 45.0767 96.5948H46.192L47.3411 97.1679C47.9359 97.7636 49.2518 97.7636 49.2518 98.9053C49.2053 99.1135 49.2164 99.3305 49.2839 99.5329C49.3514 99.7353 49.4727 99.9154 49.6348 100.054L51.5455 100.595L51.7257 102.125L51.1737 104.048ZM53.2691 100.595C52.8861 100.031 53.2691 99.0655 52.7058 98.4969C52.7058 98.1133 53.0889 97.9238 52.8974 97.7298C52.7058 97.3462 50.4189 96.579 50.4189 96.579C49.5492 96.0059 48.7223 95.3696 47.9404 94.6746C47.1743 94.4828 46.5885 94.8664 45.649 95.0582V94.6746C46.032 93.9074 46.032 92.9597 47.1766 92.9597C47.4857 92.9085 47.8026 92.9339 48.0996 93.0338C48.3966 93.1337 48.6645 93.3051 48.88 93.5329C49.6461 93.5329 50.0291 94.3 50.5991 94.4806C51.2909 95.1439 52.0592 95.7216 52.8906 96.1954C52.832 96.658 53.0573 97.107 53.4629 97.3349C54.6007 97.3349 54.229 98.4744 54.6007 99.2393L53.2691 100.595ZM55.3646 96.2405C54.9815 94.8867 54.0127 93.5712 52.8974 93.5712C52.3296 93.1042 51.8677 92.5197 51.5455 91.8564C50.9732 91.2832 50.4076 91.8564 49.6438 91.2832C48.7808 91.1975 47.9134 91.3961 47.1766 91.8564V91.2832L48.5285 89.7534C49.8804 89.9452 51.5838 89.7534 51.9533 90.7101C52.7351 91.0937 53.4449 91.6127 54.0487 92.24V92.8131C54.4227 93.0049 55.1866 93.1967 55.5764 93.3772C55.5764 93.9503 55.3961 96.2383 55.3961 96.2383L55.3646 96.2405ZM57.451 86.9058C56.5723 87.1021 55.671 87.1021 54.7923 86.9058C55.3646 86.5223 55.9301 86.3418 56.7029 85.7664L58.2306 84.2365H59.7582C59.1859 85.3873 58.5978 86.5245 57.451 86.9058ZM58.0233 78.3361C58.6203 78.2781 59.2202 78.4125 59.7357 78.7197C59.7357 79.6764 60.1187 80.4345 60.1187 81.574C58.9809 80.4232 58.0233 79.471 58.0233 78.3293V78.3361ZM58.5956 89.767C58.7758 89.2029 59.3617 88.9998 59.7334 88.4131C60.2437 87.7595 60.689 87.0574 61.0628 86.3169C61.6725 85.8875 62.4129 85.6848 63.156 85.7438C62.9645 86.8833 62.3899 87.2736 61.4368 88.5981C60.878 88.9817 59.7334 89.1622 58.5978 89.7376L58.5956 89.767ZM61.2543 93.3862L60.1165 91.8564H63.005L63.5773 92.9958C63.2541 93.2514 62.8715 93.4206 62.4652 93.4877C62.0589 93.5548 61.6423 93.5175 61.2543 93.3794V93.3862ZM62.6062 82.1494L62.2615 80.236C62.9915 79.7847 63.6359 79.2025 64.1541 78.5211C64.1316 79.8591 63.9401 81.5672 62.6107 82.1403L62.6062 82.1494ZM64.8977 72.2438C64.7061 72.2438 64.8977 72.8079 64.7061 72.8079C64.5416 73.4347 64.4137 74.0706 64.3231 74.7123C64.044 74.893 63.726 75.0046 63.3954 75.038C63.0647 75.0713 62.7309 75.0254 62.4214 74.9041V74.331C62.2637 73.8346 62.2006 73.3156 62.2299 72.8012L62.0384 72.6094C61.8445 72.6715 61.6811 72.8044 61.5805 72.9816C61.4799 73.1588 61.4495 73.3675 61.4954 73.5661C61.1957 73.9542 60.9997 74.4122 60.9321 74.9199C60.308 74.9425 59.6974 74.7394 59.2062 74.3558V72.6409C59.2062 72.2664 59.2062 72.2664 59.0147 72.2664L58.0683 73.2141C57.3023 72.6409 57.122 71.1156 57.122 70.1544C60.1773 68.4395 63.9986 69.0036 66.2518 69.9626C66.6348 70.1544 67.0179 70.1544 67.3896 70.3462C67.1981 71.4857 66.8264 73.2073 65.6772 73.9654C65.6164 73.3269 65.3393 72.7289 64.8977 72.2664V72.2438ZM68.3225 92.8153C67.6361 92.614 66.9918 92.2898 66.4208 91.8586C66.3014 91.4863 66.2405 91.1005 66.2293 90.7079H67.7569L68.7032 92.8063H68.3202L68.3225 92.8153ZM68.3225 87.6663C67.1651 86.5847 66.1395 85.3698 65.2672 84.047L68.3225 84.6201C69.1323 85.3375 69.8976 86.1038 70.6139 86.9149C69.9436 87.3914 69.1444 87.6549 68.3225 87.6663ZM70.4179 80.4277C69.2688 78.7129 69.8456 77.1831 70.4179 75.8382C70.7401 76.8988 70.9947 77.9818 71.184 79.0739C71.3755 79.8411 72.5358 80.2134 72.8964 80.7888C72.1303 81.0031 70.7964 81.3845 70.4179 80.4277ZM71.184 97.3823L72.1303 95.0875C72.7098 95.0026 73.2822 94.8744 73.8427 94.7039C74.468 94.5542 75.1107 94.4897 75.7534 94.5121V94.7039C77.8533 94.7039 80.3363 94.5121 81.8662 96.2338L82.0464 97.7636C81.2803 97.1905 80.1448 97.1905 79.755 96.2338C79.0024 96.0668 78.2318 96.0014 77.4635 96.042C76.6512 96.2004 75.8233 96.2648 74.9963 96.2338C74.8048 96.2338 74.9963 96.042 74.6133 95.8502C73.4596 96.2405 72.3218 96.2405 71.1749 97.38L71.184 97.3823ZM77.2968 104.436L76.7245 105C76.1612 104.436 76.5329 102.901 75.5866 102.705C74.6403 102.705 73.8675 101.748 73.5002 101.566L74.2663 101.182C74.5096 101.069 74.7845 101.069 75.0323 101.182C75.4154 101.566 75.7984 101.746 75.7984 102.13C76.1815 102.703 76.7447 102.13 77.1345 102.703C77.3561 103.247 77.4041 103.846 77.272 104.418L77.2968 104.436ZM83.1955 104.052C82.8125 102.913 82.4295 101.198 81.1001 101.198C81.0412 100.848 80.9095 100.515 80.7135 100.219C80.5174 99.9236 80.2615 99.6728 79.9622 99.483L78.4346 99.3025C78.6261 100.07 79.7865 100.07 78.9979 101.207C79.764 101.771 80.3498 101.771 80.7171 102.737C81.0911 103.301 80.7171 104.091 80.8973 104.452L79.7595 105.016C79.7595 104.059 79.951 102.155 78.6216 101.771C77.4838 102.155 77.2697 100.631 76.5262 100.056C76.1432 100.056 76.1432 99.0994 75.5709 99.483C74.6245 100.056 73.4844 99.483 72.5156 100.056L73.4709 98.5263C74.237 97.9531 74.9986 98.1427 75.7624 97.9531L77.29 97.7613C78.8176 97.7613 80.1402 98.5285 81.6679 99.1152C82.0313 99.2753 82.3359 99.5446 82.5398 99.8858C82.7436 100.227 82.8366 100.623 82.8057 101.02C83.1888 101.211 83.9436 101.211 83.9436 101.787C83.6236 102.525 83.3577 103.287 83.155 104.043L83.1955 104.052ZM85.861 101.198C85.478 100.625 85.2977 100.058 84.9057 100.058C85.478 97.9599 84.3424 96.2338 83.9593 94.5347V93.9526C84.5316 94.9093 86.0458 95.8569 85.861 96.8137C86.003 98.2713 86.0863 99.7334 86.0413 101.198H85.861ZM83.9593 77.3816L85.487 76.6144C85.9939 77.0341 86.573 77.3591 87.1994 77.5621C86.7167 77.9132 86.1279 78.0868 85.5322 78.0535C84.9366 78.0202 84.3707 77.7821 83.9301 77.3794L83.9593 77.3816ZM96.8924 80.4413C97.3176 80.7722 97.6999 81.155 98.0303 81.5808V83.1106C96.3111 82.1539 95.3648 80.4413 93.8439 78.7264C95.3423 78.7106 95.7231 80.2337 96.8632 80.4255L96.8924 80.4413ZM88.3305 80.8249C88.9028 81.398 89.6666 82.1787 89.6666 82.7293C89.6363 82.9655 89.5516 83.1915 89.419 83.3893C89.2864 83.5871 89.1097 83.7512 88.9028 83.8687C88.5664 83.4773 88.3072 83.0256 88.139 82.5375C88.0871 81.9553 88.1412 81.3709 88.2967 80.8091L88.3305 80.8249ZM90.0496 95.1169C90.1443 94.0744 89.8018 93.041 89.0943 92.2625C89.0943 91.8789 89.6666 91.8789 89.2858 91.3148C89.2858 91.3148 88.148 90.7417 88.148 89.961C88.148 89.1803 88.914 88.6072 89.2858 88.0566C89.2858 87.8648 90.0519 88.4402 90.0519 89.5864C90.0672 89.9754 90.002 90.3634 89.8604 90.7259C89.6688 91.299 90.9982 91.299 90.9982 91.8767C90.9667 92.9778 90.2028 93.9345 90.0203 95.074L90.0496 95.1169ZM92.1451 86.9262C92.0549 87.3052 91.762 87.6031 91.379 87.6933C90.8492 87.1603 90.4557 86.5069 90.2321 85.7889C90.0519 85.0218 90.8044 83.6905 90.8044 83.6905C90.9959 83.6905 91.1785 84.065 91.3767 84.065C91.5682 84.2568 91.3767 84.8322 91.5682 85.4189C92.109 85.7867 92.4853 86.5516 92.109 86.9307L92.1451 86.9262ZM93.8574 96.8723C94.2405 95.9156 94.2405 94.0112 93.8574 94.0112C93.4834 93.8194 92.7196 94.0112 92.7196 93.6276C92.7196 93.0545 92.9111 92.2738 92.9111 91.9128C92.9111 91.1456 92.3388 90.762 92.3388 90.3829C92.3388 89.2322 93.6907 89.0291 94.0512 88.2845C94.2113 89.1007 94.2726 89.9333 94.2337 90.7643C94.2337 91.1479 94.806 92.2941 94.2337 93.2463C94.2337 93.8194 95.3828 93.4381 95.3828 94.0135C95.3513 94.916 94.2067 96.0555 93.8237 96.8204L93.8574 96.8723ZM96.9127 92.2828C96.3404 92.2828 96.3404 91.8992 96.3404 91.1433C96.1162 90.0372 95.7996 88.9518 95.3941 87.8987C95.0111 86.3688 94.0422 85.0443 93.2987 83.3092C93.1072 82.542 92.1608 82.1697 91.397 81.5943C91.87 81.5287 92.3515 81.5628 92.8105 81.6945C93.2695 81.8263 93.696 82.0527 94.0625 82.3592C94.0625 82.7428 94.2427 82.9323 94.8286 83.51C96.1647 83.51 95.7839 85.2248 96.924 85.9807C96.3517 86.5538 96.1579 86.9374 95.7861 87.3188C96.3494 87.7024 96.924 87.8829 97.138 88.4582C97.084 89.5752 96.8902 90.9064 96.8902 92.2445L96.9127 92.2828ZM99.5782 90.3784C99.1952 89.2277 98.4291 88.0837 98.0506 86.9442C98.0506 86.7524 97.859 86.7524 98.2421 86.5606C98.4336 86.5606 99.1974 86.5606 99.1974 86.7524C99.4979 87.2135 99.6912 87.7363 99.763 88.2822C99.7089 89.0088 99.3439 89.5752 99.5331 90.3401L99.5782 90.3784ZM109.853 84.663C109.47 84.2794 109.853 83.5235 108.897 83.5235C108.533 83.6207 108.202 83.8167 107.942 84.0899C107.559 84.2817 106.414 83.5258 106.414 84.0899C106.414 85.0466 105.648 85.4437 104.702 85.4437C104.31 85.4735 103.916 85.4077 103.555 85.2519V83.3159C106.033 83.3159 105.846 82.5488 106.98 82.5488C107.746 82.5488 108.316 82.9323 108.881 82.9323C109.837 82.9323 109.271 82.5488 110.218 82.5488C111.164 82.5488 111.569 83.3159 112.11 83.5055C112.11 84.0696 112.683 84.8593 112.683 85.6039C111.322 85.6039 109.986 85.2203 109.794 84.6472L109.853 84.663ZM110.99 89.8076C110.418 89.6158 109.089 89.433 109.089 88.8599C109.089 88.0927 108.706 87.9032 107.737 87.9032C106.885 87.9483 106.047 88.1446 105.258 88.4763C104.921 88.0124 104.663 87.4954 104.495 86.9465C105.351 86.6306 106.252 86.4365 107.169 86.3824C108.521 86.3824 109.828 86.3824 109.828 86.9465C109.774 87.673 110.921 87.8648 110.921 89.767L110.99 89.8076ZM108.872 79.1032C109.325 79.001 109.771 78.873 110.209 78.7197C111.155 78.7197 111.921 80.2495 112.101 81.389C110.538 80.4721 108.776 79.9473 106.966 79.8591C105.569 80.0991 104.255 80.689 103.147 81.574L102.757 79.8682C103.895 79.6764 103.895 78.7174 104.659 78.7174C105.231 78.7174 106.011 78.5256 106.561 78.5256C106.961 78.4586 107.348 78.3292 107.708 78.142C108.654 78.142 108.271 79.0987 108.868 79.0987L108.872 79.1032ZM102.974 76.6212C103.537 76.0481 104.501 75.2674 105.265 75.2674C106.617 75.2674 107.744 76.2241 107.744 77.1718C106.595 77.1718 106.408 76.98 105.648 76.98C104.589 76.9303 103.58 77.4313 102.983 78.3338C102.69 77.8036 102.674 77.1605 102.951 76.619L102.974 76.6212ZM103.523 71.6707C103.752 71.5248 104.017 71.4474 104.287 71.4474C104.558 71.4474 104.823 71.5248 105.051 71.6707C105.051 72.8102 106.403 72.2438 107.147 72.6184C107.512 73.1336 107.772 73.7165 107.91 74.3332C106.558 73.9496 105.824 73.3765 104.679 73.3765C104.296 73.3765 102.584 73.9496 102.388 74.3332C101.807 73.5661 102.76 72.0453 103.523 71.6707ZM107.138 100.598C106.352 100.059 105.414 99.7909 104.463 99.8327C104.463 99.0655 103.9 98.1179 103.517 98.1179C102.379 98.1179 102.57 98.885 101.615 98.885L103.327 97.1702C103.519 96.7866 103.519 96.7866 103.9 96.7866C104.261 97.1321 104.736 97.3335 105.236 97.3529C105.252 97.741 105.191 98.1314 105.044 98.4924C105.617 98.876 106 98.3006 106.396 98.876C106.969 99.0678 107.534 99.2596 107.534 100.027C107.456 100.245 107.328 100.441 107.16 100.6L107.138 100.598ZM109.039 97.9283C107.687 97.7365 107.687 96.2135 107.512 96.0239C106.565 94.8844 105.22 95.8321 104.281 95.8321C103.898 94.6926 104.461 94.6927 104.461 93.9277C105.033 93.9277 105.61 93.5442 106.18 93.9277C107.135 93.5442 107.708 94.4918 108.658 94.4918C108.875 95.0199 109.13 95.5312 109.422 96.0217C109.373 96.6801 109.245 97.3302 109.039 97.9576V97.9283ZM109.986 93.9277C108.634 93.9277 109.422 91.2584 106.561 91.2584C105.988 91.2584 105.614 92.2061 104.848 92.4092C104.848 92.2174 105.04 91.0553 105.04 91.0553C105.051 90.4078 105.418 89.8189 105.995 89.5255C107.523 89.5255 107.144 90.0986 108.287 90.4822C108.814 90.7846 109.395 90.9786 109.999 91.0553V93.9097L109.986 93.9277ZM112.651 102.687C112.651 101.73 111.513 101.157 110.749 99.4424L111.515 98.0885C111.88 98.2675 112.194 98.5359 112.428 98.8688C112.661 99.2018 112.807 99.5884 112.852 99.9929C112.747 100.3 112.747 100.633 112.852 100.941C112.852 101.132 113.235 101.132 113.235 101.514C112.964 101.863 112.766 102.264 112.653 102.692L112.651 102.687ZM113.987 98.8625L112.849 97.1476C113.232 96.5745 113.232 95.7938 113.796 94.8529C114.163 95.2996 114.426 95.8231 114.562 96.3827C114.674 97.2672 114.472 98.1652 113.98 98.9099L113.987 98.8625ZM95.304 102.895C95.8222 103.224 96.1151 103.813 96.07 104.424C96.0167 105.012 95.744 105.559 95.3062 105.954C94.9232 105.571 94.9232 105.007 94.5402 104.424C94.1571 104.424 93.9678 105.372 93.9678 105.778C94.058 107.263 94.5176 108.705 95.3197 109.971H97.0321C96.7353 108.456 96.5441 106.922 96.4598 105.381C96.5725 104.479 96.8316 103.553 97.2259 102.712L95.304 102.895ZM70.7581 104.05C70.3841 104.05 69.4062 104.623 69.4062 105.007C69.4062 105.774 69.0232 109.957 69.0232 109.957H70.3751C70.9384 108.242 72.0785 105.957 72.0785 105.007C72.0942 104.248 71.5309 104.05 70.7581 104.05ZM66.1752 103.283C65.7922 103.283 65.2289 104.433 65.2289 104.813C65.2658 106.567 65.5853 108.303 66.1752 109.955H67.7028C67.7028 108.24 67.8944 106.336 67.8944 104.81C67.7186 104.81 68.1016 105.185 66.1977 103.287L66.1752 103.283ZM64.0798 101.753L61.9843 102.136C61.5713 102.55 61.3034 103.087 61.2205 103.666L62.1758 103.283C62.453 103.459 62.658 103.734 62.7481 104.05C62.5499 105.007 61.412 105.007 61.029 105.388C60.4567 107.292 62.1781 108.448 62.3651 109.977H64.6566C63.9423 108.423 63.555 106.738 63.5187 105.027C63.4295 103.909 63.6297 102.787 64.1 101.769L64.0798 101.753ZM72.2857 52.3989H72.858C73.4304 51.8257 73.8044 52.3989 74.2099 51.8257C74.6516 50.6253 74.5074 49.285 73.8201 48.2065C73.4461 47.4393 72.4683 47.067 71.5287 46.3021L70.1926 47.0693C69.8207 47.271 69.5153 47.5764 69.3134 47.9485C69.1114 48.3205 69.0216 48.7433 69.0547 49.1655C70.4472 49.8807 71.585 51.0112 72.3083 52.4011L72.2857 52.3989ZM64.6476 51.4422C65.5939 51.4422 65.2199 52.796 65.9995 52.972H67.7118C67.7118 52.3989 67.5203 52.3989 67.3288 52.3989C66.3825 52.3989 66.3825 50.869 65.6164 51.2481C65.2424 51.2481 64.8503 50.8645 64.2645 51.2481C64.2961 51.4692 64.2961 51.4692 64.6768 51.4692L64.6476 51.4422ZM65.2199 55.6345H64.8368C65.159 57.2636 65.2875 58.9243 65.2199 60.5851C65.6433 60.6259 66.0357 60.8251 66.3189 61.143C66.6021 61.4609 66.7551 61.874 66.7475 62.2999C67.5474 62.6045 68.3134 62.9859 69.039 63.4394C69.4445 63.1009 69.7149 62.6271 69.805 62.0856C69.039 61.1379 67.3266 61.702 67.3266 59.9871L66.1887 59.6035C66.2335 58.5797 66.1693 57.5541 65.9972 56.5439L66.1887 56.3521C66.2957 56.6628 66.4994 56.9309 66.77 57.117C67.5361 57.117 68.2977 57.3088 69.0615 56.7334C69.4445 56.5416 69.4445 55.5939 69.8276 55.5939C70.0055 55.6333 70.1912 55.6177 70.3602 55.5492C70.5291 55.4808 70.6734 55.3626 70.7739 55.2103C70.7739 55.2103 71.1569 55.2103 70.7739 55.0185L66.5875 54.4454C66.1977 55.0659 65.2514 55.0659 65.2514 55.6413L65.2199 55.6345ZM61.225 51.2504C60.842 50.8668 59.6974 51.4422 59.1386 51.634C58.8041 51.6873 58.4952 51.8456 58.2563 52.0861C58.0174 52.3266 57.8608 52.6367 57.8092 52.972H59.9407C60.2719 52.3357 60.7135 51.7626 61.2475 51.2797L61.225 51.2504ZM53.4336 51.4422C54.5639 50.5657 55.7739 49.7974 57.0477 49.1474C56.8561 47.243 54.7562 47.049 53.8076 46.2863H53.0641C51.5364 46.8594 51.1624 48.3847 50.9777 49.716C51.5365 51.476 52.6901 50.3365 53.4561 51.476L53.4336 51.4422ZM66.2 65.9553L68.2954 66.7224V65.7657H66.3938L66.2 65.9553ZM54.2132 54.5244C54.1997 54.8313 54.3168 55.1336 54.5354 55.348C54.754 55.5623 55.0536 55.6797 55.3601 55.6639C55.3916 56.1535 55.6823 56.5664 56.1261 56.8033C56.2974 56.9884 56.5385 57.0922 56.7908 57.0922C57.0432 57.0922 57.2865 56.9884 57.4555 56.8033C58.0278 57.1869 58.2216 56.4198 58.4108 56.8033C58.4493 57.6975 58.385 58.5932 58.2193 59.4726C58.0278 60.8107 56.8674 60.6121 55.9278 61.1875C55.9278 61.7606 55.3646 62.7173 55.9278 63.286C56.5249 62.8979 57.1671 62.582 57.8385 62.345C57.9103 61.9948 58.0722 61.6695 58.3081 61.4012C58.5441 61.1328 58.8459 60.9309 59.1837 60.8152C59.1837 59.1003 59.7469 57.3855 59.7469 55.6706C59.6185 55.1652 59.267 54.7681 58.7916 54.5312H54.2064L54.2132 54.5244ZM55.9256 65.4002C55.867 65.8627 56.0923 66.3118 56.4979 66.5397C56.9711 66.0884 57.5727 65.8447 58.2103 65.7725C57.8363 64.9918 56.8877 65.759 55.9256 65.4002Z" fill="#E6873C"/>
</svg>
