<svg width="300" height="150" viewBox="0 0 300 150" fill="none" xmlns="http://www.w3.org/2000/svg">
<path d="M81.1526 59.1426C72.3168 59.1426 65.1526 66.2854 65.1526 75.095C65.1526 83.9045 72.3168 91.0473 81.1526 91.0473C89.9884 91.0473 97.1526 83.9045 97.1526 75.095C97.1048 66.2854 89.9407 59.1426 81.1526 59.1426Z" fill="#3880FF"/>
<path d="M104.077 60.5714C108.113 60.5714 111.385 57.3095 111.385 53.2857C111.385 49.2619 108.113 46 104.077 46C100.041 46 96.7698 49.2619 96.7698 53.2857C96.7698 57.3095 100.041 60.5714 104.077 60.5714Z" fill="#3880FF"/>
<path d="M113.057 60.5714L112.77 59.9048L112.293 60.4762C111.099 61.8095 109.57 62.8571 107.899 63.4762L107.421 63.6667L107.612 64.1429C109.093 67.619 109.809 71.3333 109.809 75.0952C109.809 90.8571 96.9612 103.714 81.1045 103.714C65.2478 103.714 52.4478 90.8571 52.4478 75.0952C52.4478 59.3333 65.2955 46.4762 81.1523 46.4762C85.4508 46.4762 89.5582 47.4286 93.4269 49.2381L93.8567 49.4286L94.0478 48.9524C94.7642 47.2857 95.8627 45.8571 97.2955 44.7143L97.8687 44.2381L97.2 43.9048C92.1851 41.3333 86.7881 40 81.1045 40C61.7612 40 46 55.7143 46 75C46 94.2857 61.7612 110 81.1045 110C100.448 110 116.209 94.2857 116.209 75C116.209 70.0476 115.158 65.1905 113.057 60.5714Z" fill="#3880FF"/>
<path d="M141.713 59.8574H134.31V90.3336H141.713V59.8574Z" fill="#3880FF"/>
<path d="M221.618 59.8574H214.215V90.3336H221.618V59.8574Z" fill="#3880FF"/>
<path d="M197.116 59.1426C191.911 59.1426 187.899 62.2854 186.991 63.1426L186.513 59.8569H180.352V90.3331H187.755V71.9045C187.755 68.2854 192.675 65.3331 196.305 65.3331C199.839 65.3331 202.609 68.7616 202.609 72.8569V90.3331H210.012V73.5712C209.964 65.5712 206.478 59.1426 197.116 59.1426Z" fill="#3880FF"/>
<path d="M241.009 84.809C235.421 84.809 231.743 80.4757 231.743 75.0947C231.743 69.7138 235.421 65.3804 241.009 65.3804C245.737 65.3804 248.651 69.9519 248.651 69.9519L254 66.3804C252.472 63.9995 250.657 62.5709 248.221 61.0947C246.406 59.9995 243.97 59.0947 241.248 59.0947C231.982 59.0947 224.913 66.0471 224.866 75.0471C224.913 84.0471 231.982 90.9995 241.248 90.9995C243.97 90.9995 246.406 90.0947 248.221 88.9995C250.657 87.5233 252.472 86.0947 254 83.7138L248.651 80.1424C248.651 80.19 245.785 84.809 241.009 84.809Z" fill="#3880FF"/>
<path d="M161.009 59.1426C151.696 59.1426 145.009 66.4283 145.009 74.9521C145.009 83.6188 151.505 91.0473 161.153 91.0473C169.893 91.0473 177.009 84.3807 177.009 75.1426C177.009 64.5712 168.699 59.1426 161.009 59.1426ZM161.105 65.4283C165.69 65.4283 170.036 69.1426 170.036 75.1426C170.036 80.9997 165.69 84.8092 161.057 84.8092C155.994 84.8092 151.982 80.714 151.982 75.095C151.982 69.5235 155.947 65.4283 161.105 65.4283Z" fill="#3880FF"/>
</svg>
