<svg width="24" height="24" viewBox="0 0 24 24" fill="none" xmlns="http://www.w3.org/2000/svg">
<path opacity="0.4" d="M19.7747 8.88293C18.8282 4.82634 15.1955 3 12.0045 3C12.0045 3 12.0045 3 11.9955 3C8.81351 3 5.17181 4.81756 4.22533 8.87415C3.17068 13.4049 6.01914 17.242 8.59717 19.6566C9.55267 20.5522 10.7786 21 12.0045 21C13.2304 21 14.4563 20.5522 15.4028 19.6566C17.9809 17.242 20.8293 13.4137 19.7747 8.88293Z" fill="white"/>
<path d="M12.0035 13.2817C13.5717 13.2817 14.8429 12.0434 14.8429 10.5159C14.8429 8.98832 13.5717 7.75 12.0035 7.75C10.4353 7.75 9.16406 8.98832 9.16406 10.5159C9.16406 12.0434 10.4353 13.2817 12.0035 13.2817Z" fill="white"/>
</svg>
