<svg width="134" height="34" viewBox="0 0 134 34" fill="none" xmlns="http://www.w3.org/2000/svg">
<path d="M0.324 33V0.799998H6.304V27.94H23.14V33H0.324ZM42.3651 33.46C39.8505 33.46 37.5351 33.046 35.4191 32.218C33.3031 31.39 31.4631 30.24 29.8991 28.768C28.3351 27.2653 27.1238 25.5173 26.2651 23.524C25.4065 21.5 24.9771 19.292 24.9771 16.9C24.9771 14.508 25.4065 12.3153 26.2651 10.322C27.1238 8.298 28.3351 6.55 29.8991 5.078C31.4631 3.57533 33.3031 2.41 35.4191 1.582C37.5351 0.753998 39.8351 0.339998 42.3191 0.339998C44.8338 0.339998 47.1338 0.753998 49.2191 1.582C51.3351 2.41 53.1751 3.57533 54.7391 5.078C56.3031 6.55 57.5145 8.298 58.3731 10.322C59.2318 12.3153 59.6611 14.508 59.6611 16.9C59.6611 19.292 59.2318 21.5 58.3731 23.524C57.5145 25.548 56.3031 27.296 54.7391 28.768C53.1751 30.24 51.3351 31.39 49.2191 32.218C47.1338 33.046 44.8491 33.46 42.3651 33.46ZM42.3191 28.216C43.9445 28.216 45.4471 27.94 46.8271 27.388C48.2071 26.836 49.4031 26.054 50.4151 25.042C51.4271 23.9993 52.2091 22.8033 52.7611 21.454C53.3438 20.074 53.6351 18.556 53.6351 16.9C53.6351 15.244 53.3438 13.7413 52.7611 12.392C52.2091 11.012 51.4271 9.816 50.4151 8.804C49.4031 7.76133 48.2071 6.964 46.8271 6.412C45.4471 5.86 43.9445 5.584 42.3191 5.584C40.6938 5.584 39.1911 5.86 37.8111 6.412C36.4618 6.964 35.2658 7.76133 34.2231 8.804C33.2111 9.816 32.4138 11.012 31.8311 12.392C31.2791 13.7413 31.0031 15.244 31.0031 16.9C31.0031 18.5253 31.2791 20.028 31.8311 21.408C32.4138 22.788 33.2111 23.9993 34.2231 25.042C35.2351 26.054 36.4311 26.836 37.8111 27.388C39.1911 27.94 40.6938 28.216 42.3191 28.216ZM81.0418 33.46C78.5271 33.46 76.2118 33.0613 74.0958 32.264C72.0104 31.436 70.1858 30.286 68.6218 28.814C67.0578 27.3113 65.8464 25.548 64.9878 23.524C64.1291 21.5 63.6998 19.292 63.6998 16.9C63.6998 14.508 64.1291 12.3 64.9878 10.276C65.8464 8.252 67.0578 6.504 68.6218 5.032C70.2164 3.52933 72.0718 2.37933 74.1878 1.582C76.3038 0.753998 78.6191 0.339998 81.1338 0.339998C83.8631 0.339998 86.3164 0.784665 88.4938 1.674C90.7018 2.56333 92.5571 3.86667 94.0598 5.584L90.2878 9.264C89.0304 8.00666 87.6658 7.08666 86.1938 6.504C84.7524 5.89067 83.1578 5.584 81.4098 5.584C79.7231 5.584 78.1591 5.86 76.7178 6.412C75.2764 6.964 74.0344 7.746 72.9918 8.758C71.9491 9.77 71.1364 10.966 70.5538 12.346C70.0018 13.726 69.7258 15.244 69.7258 16.9C69.7258 18.5253 70.0018 20.028 70.5538 21.408C71.1364 22.788 71.9491 23.9993 72.9918 25.042C74.0344 26.054 75.2611 26.836 76.6718 27.388C78.0824 27.94 79.6464 28.216 81.3638 28.216C82.9584 28.216 84.4918 27.9707 85.9638 27.48C87.4664 26.9587 88.8924 26.1 90.2418 24.904L93.6458 29.366C91.9591 30.7153 89.9964 31.7427 87.7578 32.448C85.5498 33.1227 83.3111 33.46 81.0418 33.46ZM87.9878 28.584V16.532H93.6458V29.366L87.9878 28.584ZM116.621 33.46C114.106 33.46 111.791 33.046 109.675 32.218C107.559 31.39 105.719 30.24 104.155 28.768C102.591 27.2653 101.38 25.5173 100.521 23.524C99.6623 21.5 99.233 19.292 99.233 16.9C99.233 14.508 99.6623 12.3153 100.521 10.322C101.38 8.298 102.591 6.55 104.155 5.078C105.719 3.57533 107.559 2.41 109.675 1.582C111.791 0.753998 114.091 0.339998 116.575 0.339998C119.09 0.339998 121.39 0.753998 123.475 1.582C125.591 2.41 127.431 3.57533 128.995 5.078C130.559 6.55 131.77 8.298 132.629 10.322C133.488 12.3153 133.917 14.508 133.917 16.9C133.917 19.292 133.488 21.5 132.629 23.524C131.77 25.548 130.559 27.296 128.995 28.768C127.431 30.24 125.591 31.39 123.475 32.218C121.39 33.046 119.105 33.46 116.621 33.46ZM116.575 28.216C118.2 28.216 119.703 27.94 121.083 27.388C122.463 26.836 123.659 26.054 124.671 25.042C125.683 23.9993 126.465 22.8033 127.017 21.454C127.6 20.074 127.891 18.556 127.891 16.9C127.891 15.244 127.6 13.7413 127.017 12.392C126.465 11.012 125.683 9.816 124.671 8.804C123.659 7.76133 122.463 6.964 121.083 6.412C119.703 5.86 118.2 5.584 116.575 5.584C114.95 5.584 113.447 5.86 112.067 6.412C110.718 6.964 109.522 7.76133 108.479 8.804C107.467 9.816 106.67 11.012 106.087 12.392C105.535 13.7413 105.259 15.244 105.259 16.9C105.259 18.5253 105.535 20.028 106.087 21.408C106.67 22.788 107.467 23.9993 108.479 25.042C109.491 26.054 110.687 26.836 112.067 27.388C113.447 27.94 114.95 28.216 116.575 28.216Z" fill="black"/>
</svg>
