<svg width="134" height="34" viewBox="0 0 134 34" fill="none" xmlns="http://www.w3.org/2000/svg">
<g clip-path="url(#clip0_651_5781)">
<path d="M0.324219 32.9998V0.799844H6.30422V27.9398H23.1402V32.9998H0.324219ZM42.3653 33.4598C39.8507 33.4598 37.5353 33.0458 35.4193 32.2178C33.3033 31.3898 31.4633 30.2398 29.8993 28.7678C28.3353 27.2651 27.124 25.5171 26.2653 23.5238C25.4067 21.4998 24.9773 19.2918 24.9773 16.8998C24.9773 14.5078 25.4067 12.3151 26.2653 10.3218C27.124 8.29785 28.3353 6.54985 29.8993 5.07785C31.4633 3.57518 33.3033 2.40985 35.4193 1.58185C37.5353 0.753844 39.8353 0.339844 42.3193 0.339844C44.834 0.339844 47.134 0.753844 49.2193 1.58185C51.3353 2.40985 53.1753 3.57518 54.7393 5.07785C56.3033 6.54985 57.5147 8.29785 58.3733 10.3218C59.232 12.3151 59.6613 14.5078 59.6613 16.8998C59.6613 19.2918 59.232 21.4998 58.3733 23.5238C57.5147 25.5478 56.3033 27.2958 54.7393 28.7678C53.1753 30.2398 51.3353 31.3898 49.2193 32.2178C47.134 33.0458 44.8493 33.4598 42.3653 33.4598ZM42.3193 28.2158C43.9447 28.2158 45.4473 27.9398 46.8273 27.3878C48.2073 26.8358 49.4033 26.0538 50.4153 25.0418C51.4273 23.9991 52.2093 22.8031 52.7613 21.4538C53.344 20.0738 53.6353 18.5558 53.6353 16.8998C53.6353 15.2438 53.344 13.7411 52.7613 12.3918C52.2093 11.0118 51.4273 9.81585 50.4153 8.80385C49.4033 7.76118 48.2073 6.96385 46.8273 6.41185C45.4473 5.85985 43.9447 5.58385 42.3193 5.58385C40.694 5.58385 39.1913 5.85985 37.8113 6.41185C36.462 6.96385 35.266 7.76118 34.2233 8.80385C33.2113 9.81585 32.414 11.0118 31.8313 12.3918C31.2793 13.7411 31.0033 15.2438 31.0033 16.8998C31.0033 18.5251 31.2793 20.0278 31.8313 21.4078C32.414 22.7878 33.2113 23.9991 34.2233 25.0418C35.2353 26.0538 36.4313 26.8358 37.8113 27.3878C39.1913 27.9398 40.694 28.2158 42.3193 28.2158ZM81.042 33.4598C78.5273 33.4598 76.212 33.0611 74.096 32.2638C72.0106 31.4358 70.186 30.2858 68.622 28.8138C67.058 27.3111 65.8466 25.5478 64.988 23.5238C64.1293 21.4998 63.7 19.2918 63.7 16.8998C63.7 14.5078 64.1293 12.2998 64.988 10.2758C65.8466 8.25185 67.058 6.50385 68.622 5.03185C70.2166 3.52918 72.072 2.37918 74.188 1.58185C76.304 0.753844 78.6193 0.339844 81.134 0.339844C83.8633 0.339844 86.3166 0.784511 88.494 1.67385C90.702 2.56318 92.5573 3.86652 94.06 5.58385L90.288 9.26385C89.0306 8.00651 87.666 7.08651 86.194 6.50385C84.7526 5.89052 83.158 5.58385 81.41 5.58385C79.7233 5.58385 78.1593 5.85985 76.718 6.41185C75.2766 6.96385 74.0346 7.74585 72.992 8.75785C71.9493 9.76985 71.1366 10.9658 70.554 12.3458C70.002 13.7258 69.726 15.2438 69.726 16.8998C69.726 18.5251 70.002 20.0278 70.554 21.4078C71.1366 22.7878 71.9493 23.9991 72.992 25.0418C74.0346 26.0538 75.2613 26.8358 76.672 27.3878C78.0826 27.9398 79.6466 28.2158 81.364 28.2158C82.9586 28.2158 84.492 27.9705 85.964 27.4798C87.4666 26.9585 88.8926 26.0998 90.242 24.9038L93.646 29.3658C91.9593 30.7151 89.9966 31.7425 87.758 32.4478C85.55 33.1225 83.3113 33.4598 81.042 33.4598ZM87.988 28.5838V16.5318H93.646V29.3658L87.988 28.5838ZM116.621 33.4598C114.106 33.4598 111.791 33.0458 109.675 32.2178C107.559 31.3898 105.719 30.2398 104.155 28.7678C102.591 27.2651 101.38 25.5171 100.521 23.5238C99.6625 21.4998 99.2332 19.2918 99.2332 16.8998C99.2332 14.5078 99.6625 12.3151 100.521 10.3218C101.38 8.29785 102.591 6.54985 104.155 5.07785C105.719 3.57518 107.559 2.40985 109.675 1.58185C111.791 0.753844 114.091 0.339844 116.575 0.339844C119.09 0.339844 121.39 0.753844 123.475 1.58185C125.591 2.40985 127.431 3.57518 128.995 5.07785C130.559 6.54985 131.77 8.29785 132.629 10.3218C133.488 12.3151 133.917 14.5078 133.917 16.8998C133.917 19.2918 133.488 21.4998 132.629 23.5238C131.77 25.5478 130.559 27.2958 128.995 28.7678C127.431 30.2398 125.591 31.3898 123.475 32.2178C121.39 33.0458 119.105 33.4598 116.621 33.4598ZM116.575 28.2158C118.2 28.2158 119.703 27.9398 121.083 27.3878C122.463 26.8358 123.659 26.0538 124.671 25.0418C125.683 23.9991 126.465 22.8031 127.017 21.4538C127.6 20.0738 127.891 18.5558 127.891 16.8998C127.891 15.2438 127.6 13.7411 127.017 12.3918C126.465 11.0118 125.683 9.81585 124.671 8.80385C123.659 7.76118 122.463 6.96385 121.083 6.41185C119.703 5.85985 118.2 5.58385 116.575 5.58385C114.95 5.58385 113.447 5.85985 112.067 6.41185C110.718 6.96385 109.522 7.76118 108.479 8.80385C107.467 9.81585 106.67 11.0118 106.087 12.3918C105.535 13.7411 105.259 15.2438 105.259 16.8998C105.259 18.5251 105.535 20.0278 106.087 21.4078C106.67 22.7878 107.467 23.9991 108.479 25.0418C109.491 26.0538 110.687 26.8358 112.067 27.3878C113.447 27.9398 114.95 28.2158 116.575 28.2158Z" fill="white"/>
</g>
<defs>
<clipPath id="clip0_651_5781">
<rect width="134" height="34" fill="white"/>
</clipPath>
</defs>
</svg>
