<svg width="26" height="32" viewBox="0 0 26 32" fill="none" xmlns="http://www.w3.org/2000/svg">
<path d="M25.8639 15.582C25.9482 15.7109 26 15.8672 26 16.0361C26 16.3748 25.7996 16.6623 25.5171 16.7731C24.3738 17.6342 18.2549 22.5139 13.6727 31.4909C13.5825 31.7297 13.3931 31.9214 13.155 31.9788C13.0929 31.9953 13.0308 32 12.9687 32C12.718 32 12.4835 31.8774 12.3534 31.6441C12.3186 31.5891 12.2912 31.5294 12.2705 31.465C11.6759 30.2393 7.7357 22.4911 0.449805 16.7291C0.185051 16.6097 0.000167363 16.3308 0.000167363 16.0055C0.000167363 15.9992 0.000167363 15.9929 0.000167363 15.9882C-0.00279078 15.8389 0.0334464 15.6889 0.110358 15.5569C0.197623 15.4076 0.328521 15.2953 0.479386 15.2348C1.42525 14.5324 7.61516 9.71785 12.2861 0.61203C12.3585 0.262411 12.6544 0 13.0071 0C13.1521 0 13.2874 0.0447827 13.4013 0.120992C13.5588 0.215271 13.6793 0.369261 13.7378 0.555463C14.1911 1.50533 18.1291 9.44758 25.5999 15.3275C25.7064 15.3888 25.7981 15.476 25.8639 15.582Z" fill="black"/>
</svg>
