<svg width="300" height="150" viewBox="0 0 300 150" fill="none" xmlns="http://www.w3.org/2000/svg">
<path d="M121.586 58.2791H135.205C143.279 58.2791 146.26 61.6017 146.26 67.6997V72.4521C146.26 78.5168 142.931 81.808 134.889 81.808H128.246V93.1057H121.588L121.586 58.2791ZM134.905 64.077H128.223V75.9572H134.881C138.609 75.9572 139.71 74.594 139.71 71.7205V68.2155C139.643 65.3421 138.444 64.0966 134.881 64.0966L134.905 64.077ZM168.6 93.1057H163.356L162.89 91.4444C160.63 92.9082 157.993 93.6876 155.298 93.6882C150.637 93.6882 148.64 90.499 148.64 86.1113C148.64 80.9273 150.888 78.9522 156.081 78.9522H162.206V76.2769C162.206 73.4525 161.424 72.4561 157.329 72.4561C154.95 72.4814 152.58 72.7429 150.254 73.2367L149.471 68.3685C152.316 67.568 155.255 67.1491 158.211 67.123C166.235 67.123 168.582 69.9474 168.582 76.3279L168.6 93.1057ZM162.185 83.4831H157.456C155.359 83.4831 154.776 84.0636 154.776 85.9936C154.776 87.9237 155.357 88.5533 157.34 88.5533C159.036 88.5341 160.698 88.0817 162.169 87.2391L162.185 83.4831ZM172.412 83.8479V76.8849C172.412 70.02 175.392 67.0779 183.418 67.0779C185.534 67.0922 187.637 67.4113 189.662 68.0253L188.879 73.2583C187.147 72.8298 185.37 72.6014 183.585 72.5777C179.922 72.5777 178.823 73.6761 178.823 76.8143V83.8753C178.823 87.0136 179.924 88.112 183.585 88.112C185.371 88.1049 187.15 87.8762 188.879 87.4314L189.66 92.6624C187.635 93.2901 185.533 93.6098 183.416 93.6098C175.409 93.6098 172.41 90.6677 172.41 83.8028L172.412 83.8479ZM193.689 93.1057V57.2121L200.082 56.3157V93.0841L193.689 93.1057ZM215.397 67.6546L207.906 80.2664L215.714 93.1253H208.684L200.976 80.2664L208.248 67.6546H215.397ZM228.696 88.4003C231.344 88.3905 233.975 88.008 236.505 87.2234L237.503 92.0426C234.494 93.1404 231.316 93.7027 228.113 93.7039C220.088 93.7039 217.304 89.9831 217.304 83.8675V77.1203C217.304 71.7362 219.717 67.1524 227.891 67.1524C236.064 67.1524 237.878 71.9049 237.878 77.4027V82.8554H223.699V84.1695C223.699 87.2431 224.78 88.4395 228.677 88.4395L228.696 88.4003ZM223.705 77.6832H231.829V76.4201C231.829 74.0115 231.096 72.3325 227.95 72.3325C224.803 72.3325 223.705 73.9938 223.705 76.4201V77.6832ZM255 72.966C252.653 74.0311 250.395 75.2746 248.239 76.6868V93.1037H241.846V67.6487H247.241L247.658 70.4731C249.721 69.1001 251.981 67.9625 254.316 67.1505L255 72.966Z" fill="white"/>
<path fill-rule="evenodd" clip-rule="evenodd" d="M45 37.2234L77.4805 55.9587V125L45 106.298V37.2234Z" fill="#1DAEFF"/>
<path d="M93.5625 45.2985L58.2599 25V39.1162L82.2621 52.9539V95.2416L93.5625 101.702C100.553 105.733 106.278 103.317 106.278 96.34V65.3499C106.278 58.3732 100.555 49.3645 93.5625 45.3358V45.2985Z" fill="#1D94DD"/>
</svg>
