<svg width="24" height="24" viewBox="0 0 24 24" fill="none" xmlns="http://www.w3.org/2000/svg">
<path d="M16.496 11.0004C16.152 11.0004 15.88 10.7204 15.88 10.3844C15.88 10.0884 15.584 9.47238 15.088 8.93638C14.6 8.41637 14.064 8.11237 13.616 8.11237C13.272 8.11237 13 7.83237 13 7.49637C13 7.16037 13.28 6.88037 13.616 6.88037C14.416 6.88037 15.256 7.31237 15.992 8.08837C16.68 8.81638 17.12 9.72038 17.12 10.3764C17.12 10.7204 16.84 11.0004 16.496 11.0004Z" fill="white"/>
<path d="M19.3877 11C19.0437 11 18.7717 10.72 18.7717 10.384C18.7717 7.54401 16.4597 5.24 13.6277 5.24C13.2837 5.24 13.0117 4.96 13.0117 4.624C13.0117 4.288 13.2837 4 13.6197 4C17.1397 4 20.0037 6.86401 20.0037 10.384C20.0037 10.72 19.7237 11 19.3877 11Z" fill="white"/>
<path opacity="0.4" d="M11.832 13.768L9.21601 16.384C8.92801 16.128 8.64801 15.864 8.37601 15.592C7.55201 14.76 6.80801 13.888 6.144 12.976C5.488 12.064 4.96 11.152 4.576 10.248C4.192 9.33601 4 8.46401 4 7.63201C4 7.08801 4.096 6.56801 4.288 6.08801C4.48 5.6 4.784 5.152 5.208 4.752C5.72 4.248 6.28001 4 6.87201 4C7.09601 4 7.32001 4.048 7.52001 4.144C7.72801 4.24 7.91201 4.384 8.05601 4.592L9.91201 7.20801C10.056 7.40801 10.16 7.59201 10.232 7.76801C10.304 7.93601 10.344 8.10401 10.344 8.25601C10.344 8.44801 10.288 8.64001 10.176 8.82401C10.072 9.00801 9.92001 9.20001 9.72801 9.39201L9.12001 10.024C9.03201 10.112 8.99201 10.216 8.99201 10.344C8.99201 10.408 9.00001 10.464 9.01601 10.528C9.04001 10.592 9.06401 10.64 9.08001 10.688C9.22401 10.952 9.47201 11.296 9.82401 11.712C10.184 12.128 10.568 12.552 10.984 12.976C11.272 13.256 11.552 13.528 11.832 13.768Z" fill="white"/>
<path d="M19.982 17.0638C19.982 17.2878 19.942 17.5198 19.862 17.7438C19.838 17.8078 19.814 17.8718 19.782 17.9358C19.646 18.2238 19.47 18.4958 19.238 18.7518C18.846 19.1838 18.414 19.4958 17.926 19.6959C17.918 19.6959 17.91 19.7038 17.902 19.7038C17.43 19.8958 16.918 19.9999 16.366 19.9999C15.55 19.9999 14.6779 19.8079 13.7579 19.4158C12.8379 19.0238 11.9179 18.4958 11.0059 17.8318C10.6939 17.5998 10.3819 17.3678 10.0859 17.1198L12.7019 14.5038C12.9259 14.6718 13.1259 14.7998 13.2939 14.8878C13.3339 14.9038 13.3819 14.9278 13.4379 14.9518C13.5019 14.9758 13.5659 14.9838 13.6379 14.9838C13.7739 14.9838 13.8779 14.9358 13.9659 14.8478L14.5739 14.2478C14.7739 14.0478 14.9659 13.8958 15.1499 13.7998C15.3339 13.6878 15.5179 13.6318 15.7179 13.6318C15.87 13.6318 16.03 13.6638 16.206 13.7358C16.382 13.8078 16.566 13.9118 16.766 14.0478L19.414 15.9278C19.622 16.0718 19.766 16.2398 19.854 16.4398C19.934 16.6398 19.982 16.8398 19.982 17.0638Z" fill="white"/>
</svg>
