<svg width="73" height="72" viewBox="0 0 73 72" fill="none" xmlns="http://www.w3.org/2000/svg">
<path d="M36.2871 10.6207C28.3647 10.6207 21.9423 17.0431 21.9423 24.9655C21.9423 32.8879 28.3647 39.3103 36.2871 39.3103C44.2095 39.3103 50.6319 32.8879 50.6319 24.9655C50.6319 17.0431 44.2095 10.6207 36.2871 10.6207ZM35.1837 26.069C35.1837 28.5066 33.2076 30.4828 30.7699 30.4828C28.3322 30.4828 26.3561 28.5066 26.3561 26.069V20.5517C26.3561 19.9423 26.8501 19.4483 27.4595 19.4483C28.069 19.4483 28.563 19.9423 28.563 20.5517V26.069C28.563 27.2878 29.5511 28.2759 30.7699 28.2759C31.9887 28.2759 32.9768 27.2878 32.9768 26.069V20.5517C32.9768 19.9423 33.4708 19.4483 34.0802 19.4483C34.6896 19.4483 35.1837 19.9423 35.1837 20.5517V26.069ZM46.1486 20.939L42.8383 29.7666C42.6773 30.1983 42.2651 30.4846 41.8044 30.4846C41.3436 30.4846 40.9314 30.1983 40.7704 29.7666L37.4601 20.939C37.2468 20.368 37.5368 19.7322 38.1078 19.5189C38.6788 19.3056 39.3147 19.5956 39.528 20.1666L41.8044 26.2367L44.0808 20.1677C44.2941 19.5967 44.9299 19.3067 45.5009 19.52C46.0719 19.7333 46.3619 20.3691 46.1486 20.9401V20.939Z" fill="black"/>
<path d="M40.6259 48.1379H39.0457C38.741 48.1379 38.494 48.3849 38.494 48.6896V50.3448H34.0802V48.6896C34.0802 48.3849 33.8332 48.1379 33.5285 48.1379H31.9484C31.7341 48.1383 31.5391 48.0146 31.448 47.8207C31.357 47.6268 31.3864 47.3977 31.5235 47.2331L35.8634 42.0259C35.9682 41.9002 36.1234 41.8275 36.2871 41.8275C36.4508 41.8275 36.606 41.9002 36.7108 42.0259L41.0507 47.2331C41.1878 47.3977 41.2172 47.6268 41.1262 47.8207C41.0352 48.0146 40.8401 48.1383 40.6259 48.1379Z" fill="black"/>
<path d="M17.1093 34.2819L11.688 40.6069C11.548 40.7705 11.5161 41.0007 11.6062 41.1963C11.6963 41.3919 11.892 41.5172 12.1073 41.5172H14.77C15.0747 41.5172 15.3217 41.7642 15.3217 42.0689V50.3448H19.7355V42.0689C19.7355 41.7642 19.9825 41.5172 20.2872 41.5172H22.9498C23.1652 41.5172 23.3609 41.3919 23.451 41.1963C23.5411 41.0007 23.5091 40.7705 23.3691 40.6069L17.9479 34.2819C17.8431 34.1593 17.6899 34.0888 17.5286 34.0888C17.3673 34.0888 17.2141 34.1593 17.1093 34.2819Z" fill="black"/>
<path d="M54.6265 34.2819L49.2052 40.6069C49.0653 40.7705 49.0333 41.0007 49.1234 41.1963C49.2135 41.3919 49.4092 41.5172 49.6245 41.5172H52.2872C52.5919 41.5172 52.8389 41.7642 52.8389 42.0689V50.3448H57.2527V42.0689C57.2527 41.7642 57.4997 41.5172 57.8044 41.5172H60.467C60.6824 41.5172 60.8781 41.3919 60.9682 41.1963C61.0583 41.0007 61.0263 40.7705 60.8863 40.6069L55.4651 34.2819C55.3603 34.1593 55.2071 34.0888 55.0458 34.0888C54.8845 34.0888 54.7313 34.1593 54.6265 34.2819Z" fill="black"/>
<path d="M66.0802 63.5862H6.49401C5.27517 63.5862 4.28711 64.5743 4.28711 65.7931C4.28711 67.0119 5.27517 68 6.49401 68H66.0802C67.299 68 68.2871 67.0119 68.2871 65.7931C68.2871 64.5743 67.299 63.5862 66.0802 63.5862Z" fill="black"/>
<path d="M66.0802 52.5517H6.49401C5.27517 52.5517 4.28711 53.5398 4.28711 54.7586C4.28711 55.9774 5.27517 56.9655 6.49401 56.9655H66.0802C67.299 56.9655 68.2871 55.9774 68.2871 54.7586C68.2871 53.5398 67.299 52.5517 66.0802 52.5517Z" fill="black"/>
<path d="M11.4927 58.0689L8.5465 62.4827H6.49409C6.28268 62.4823 6.07182 62.5045 5.86512 62.5489L8.85547 58.0689H11.4927Z" fill="black"/>
<path d="M17.0099 58.0689L14.0637 62.4827H11.4264L14.3726 58.0689H17.0099Z" fill="black"/>
<path d="M22.5272 58.0689L19.581 62.4827H16.9438L19.89 58.0689H22.5272Z" fill="black"/>
<path d="M28.0443 58.0689L25.0981 62.4827H22.4609L25.4071 58.0689H28.0443Z" fill="black"/>
<path d="M33.5616 58.0689L30.6154 62.4827H27.9782L30.9244 58.0689H33.5616Z" fill="black"/>
<path d="M39.0787 58.0689L36.1325 62.4827H33.4953L36.4415 58.0689H39.0787Z" fill="black"/>
<path d="M44.5961 58.0689L41.6499 62.4827H39.0126L41.9588 58.0689H44.5961Z" fill="black"/>
<path d="M50.1134 58.0689L47.1672 62.4827H44.53L47.4762 58.0689H50.1134Z" fill="black"/>
<path d="M55.6305 58.0689L52.6843 62.4827H50.0471L52.9933 58.0689H55.6305Z" fill="black"/>
<path d="M61.1478 58.0689L58.2016 62.4827H55.5644L58.5106 58.0689H61.1478Z" fill="black"/>
<path d="M66.7091 58.0027L63.7187 62.4827H61.0815L64.0277 58.069H66.0801C66.2915 58.0693 66.5024 58.0471 66.7091 58.0027Z" fill="black"/>
</svg>
