<svg width="72" height="72" viewBox="0 0 72 72" fill="none" xmlns="http://www.w3.org/2000/svg">
<path d="M22 54H51V18H40.5731L40.7739 18.3982C40.824 18.4981 40.8501 18.6083 40.85 18.72V21.3019L42.7894 23.2279L47.114 26.807C47.2518 26.921 47.3422 27.0815 47.3678 27.2578L48.0928 32.2978L46.6572 32.5022L45.9714 27.7358L42.5175 24.8796L37.1395 34.8984C37.0769 35.015 36.9832 35.1123 36.8687 35.1796C36.7542 35.2468 36.6232 35.2815 36.4902 35.2798C36.3572 35.2781 36.2272 35.2401 36.1144 35.1699C36.0017 35.0997 35.9106 35 35.8511 34.8818L32.427 28.08H28.1002L24.6876 31.469L23.6624 30.451L26.7749 27.36L25.1124 25.709C24.9765 25.574 24.9 25.3909 24.9 25.2V22.32H26.35V24.9019L28.1002 26.64H32.4038L34.9775 20.898L33.5145 18H22V54ZM45.925 21.6H44.475V20.16H45.925V21.6ZM43.025 33.12L45.2 36L41.575 36.72L43.025 33.12ZM31.425 31.68L29.975 36.72L28.525 33.12L31.425 31.68ZM27.8 20.16H29.25V21.6H27.8V20.16Z" fill="black"/>
<path d="M62.7333 35.9988V36.0003C62.7348 41.1125 61.27 46.1178 58.5127 50.4226C55.7554 54.7274 51.8212 58.1511 47.1769 60.2876C42.5326 62.424 37.3729 63.1836 32.3099 62.4762C27.6045 61.8188 23.1661 59.92 19.4473 56.9839L56.985 19.4462C60.7079 24.1482 62.7405 29.9803 62.7333 35.9988ZM63.4385 54.3338C67.0646 48.907 69 42.5268 69 36C69 27.2479 65.5232 18.8542 59.3345 12.6655C53.1458 6.47678 44.7522 3 36 3C29.4732 3 23.093 4.93542 17.6662 8.5615C12.2394 12.1876 8.00968 17.3415 5.51199 23.3714C3.0143 29.4014 2.36079 36.0366 3.6341 42.438C4.90741 48.8393 8.05036 54.7194 12.6655 59.3345C17.2806 63.9496 23.1607 67.0926 29.562 68.3659C35.9634 69.6392 42.5986 68.9857 48.6286 66.488C54.6585 63.9903 59.8124 59.7606 63.4385 54.3338ZM52.5527 15.0161L15.0161 52.5527C11.0816 47.5696 9.0422 41.3365 9.28625 34.9685C9.54414 28.2395 12.3327 21.8559 17.0943 17.0943C21.8559 12.3327 28.2395 9.54413 34.9685 9.28624C41.3365 9.04218 47.5696 11.0816 52.5527 15.0161Z" fill="black" stroke="white" stroke-width="2"/>
</svg>
