<svg width="73" height="72" viewBox="0 0 73 72" fill="none" xmlns="http://www.w3.org/2000/svg">
<path d="M28.7931 40.4737C28.7931 39.1326 27.6956 38.0415 26.3465 38.0415H16.0163C15.3894 39.5843 14.9335 41.2133 14.6745 42.9061H26.3465C27.6956 42.9059 28.7931 41.8148 28.7931 40.4737Z" fill="black"/>
<path d="M53.0191 31.8586L47.1298 35.0522C46.2811 35.5125 45.6947 36.2817 45.4784 37.2185C45.2621 38.1552 45.4525 39.1017 46.0144 39.8838C46.8847 41.0951 47.2378 42.5723 47.0088 44.0435C46.78 45.5145 45.9942 46.8166 44.7963 47.7097C44.3355 48.0533 44.0604 48.6002 44.0604 49.1727C44.0604 50.1811 44.8855 51.0013 45.8999 51.0013H57.8966C58.2447 49.4586 58.4297 47.8553 58.4297 46.2097C58.4298 40.7232 56.3873 35.7026 53.0191 31.8586Z" fill="black"/>
<path d="M40.2885 49.1724C40.2885 47.4258 41.1276 45.7574 42.5332 44.7094C43.3636 44.0902 43.5483 42.903 42.9449 42.0632C41.7641 40.4197 41.3475 38.348 41.8019 36.3794C42.2564 34.4108 43.5399 32.7271 45.3235 31.7599L50.164 29.1351C46.3966 26.1331 41.6194 24.3344 36.4268 24.3344C28.7132 24.3344 21.9149 28.3019 17.9854 34.2913H26.3466C29.7754 34.2913 32.5651 37.0647 32.5651 40.4735C32.5651 43.8824 29.7754 46.6558 26.3466 46.6558H14.4297C14.5086 50.5555 15.6194 54.2075 17.5008 57.3536C19.5777 53.8408 23.4189 51.4773 27.8054 51.4773C34.3916 51.4773 39.7499 56.8044 39.7499 63.3523C39.7499 64.9835 39.4172 66.5387 38.8159 67.955C46.866 67.0869 53.6273 61.8853 56.6825 54.751H45.9C42.8057 54.7511 40.2885 52.2485 40.2885 49.1724Z" fill="black"/>
<path d="M27.8054 55.2274C24.1959 55.2274 21.1276 57.5668 20.0483 60.7999C23.6775 64.8225 28.7798 67.5046 34.5029 68C35.4311 66.682 35.9779 65.08 35.9779 63.3525C35.9779 58.8723 32.3117 55.2274 27.8054 55.2274Z" fill="black"/>
<path d="M33.2834 16.625H34.5407V20.6553C35.1655 20.6102 35.794 20.5846 36.4267 20.5846C37.0571 20.5846 37.6861 20.6094 38.3126 20.6557V16.625H39.57C44.423 16.625 48.3711 12.6997 48.3711 7.87499V4H45.2278C40.3748 4 36.4267 7.92524 36.4267 12.75C36.4267 7.92524 32.4786 4 27.6255 4H24.4823V7.87499C24.4823 12.6997 28.4305 16.625 33.2834 16.625Z" fill="black"/>
</svg>
