<svg width="73" height="72" viewBox="0 0 73 72" fill="none" xmlns="http://www.w3.org/2000/svg">
<path d="M68.3082 29.8925L65.2777 26.8883C64.5704 26.1872 63.4307 26.159 62.6916 26.827C56.8109 32.1433 52.2911 32.5348 44.5137 32.5348H6.73242C5.69692 32.5348 4.85742 33.367 4.85742 34.3935V38.6065C4.85742 39.633 5.69692 40.4652 6.73242 40.4652H44.5137C58.9133 40.4652 64.4153 36.2741 68.2882 32.5412C69.0389 31.8177 69.0486 30.6264 68.3082 29.8925Z" fill="black"/>
<path d="M62.8574 61.2826H61.1707L57.6196 51.6018C57.4114 51.0344 56.9384 50.6025 56.3508 50.4437L55.5363 50.2235C55.3543 55.2587 51.1678 59.3 46.0449 59.3C40.8067 59.3 36.5449 55.0753 36.5449 49.8826C36.5449 49.0249 36.6634 48.1945 36.8812 47.4043H32.7088C32.9266 48.1945 33.0449 49.0249 33.0449 49.8826C33.0449 55.0753 28.7832 59.3 23.5449 59.3C18.4333 59.3 14.2538 55.2767 14.0546 50.2571L13.3642 50.4437C12.7765 50.6025 12.3035 51.0344 12.0954 51.6018L8.54417 61.2826H6.73242C5.69692 61.2826 4.85742 62.1148 4.85742 63.1413C4.85742 64.1678 5.69692 65 6.73242 65H62.8574C63.8929 65 64.7324 64.1678 64.7324 63.1413C64.7324 62.1148 63.8929 61.2826 62.8574 61.2826Z" fill="black"/>
<path d="M6.73242 11.7174H19.4253L22.0484 21.252C22.2231 21.8871 22.7234 22.3831 23.3641 22.5562L25.2958 23.0785C25.3172 17.9038 29.5698 13.7 34.7949 13.7C40.0314 13.7 44.2919 17.9218 44.2948 23.1122L46.3507 22.5563C46.9913 22.3832 47.4917 21.8872 47.6663 21.2521L50.2896 11.7174H62.8574C63.8929 11.7174 64.7324 10.8852 64.7324 9.8587C64.7324 8.8322 63.8929 8 62.8574 8H6.73242C5.69692 8 4.85742 8.8322 4.85742 9.8587C4.85742 10.8852 5.69692 11.7174 6.73242 11.7174Z" fill="black"/>
<path d="M29.2949 49.8826C29.2949 46.7397 26.7154 44.1826 23.5449 44.1826C20.3744 44.1826 17.7949 46.7397 17.7949 49.8826C17.7949 53.0255 20.3744 55.5826 23.5449 55.5826C26.7154 55.5826 29.2949 53.0255 29.2949 49.8826ZM21.6699 49.8826C21.6699 48.8561 22.5094 48.0239 23.5449 48.0239C24.5804 48.0239 25.4199 48.8561 25.4199 49.8826C25.4199 50.9092 24.5804 51.7413 23.5449 51.7413C22.5094 51.7413 21.6699 50.9092 21.6699 49.8826Z" fill="black"/>
<path d="M51.7949 49.8826C51.7949 46.7397 49.2154 44.1826 46.0449 44.1826C42.8744 44.1826 40.2949 46.7397 40.2949 49.8826C40.2949 53.0255 42.8744 55.5826 46.0449 55.5826C49.2154 55.5826 51.7949 53.0255 51.7949 49.8826ZM44.1699 49.8826C44.1699 48.8561 45.0094 48.0239 46.0449 48.0239C47.0804 48.0239 47.9199 48.8561 47.9199 49.8826C47.9199 50.9091 47.0804 51.7413 46.0449 51.7413C45.0094 51.7413 44.1699 50.9091 44.1699 49.8826Z" fill="black"/>
<path d="M29.0449 23.1174C29.0449 26.2603 31.6244 28.8174 34.7949 28.8174C37.9654 28.8174 40.5449 26.2603 40.5449 23.1174C40.5449 19.9745 37.9654 17.4174 34.7949 17.4174C31.6244 17.4174 29.0449 19.9745 29.0449 23.1174ZM36.7324 23.1174C36.7324 24.1439 35.8929 24.9761 34.8574 24.9761C33.8219 24.9761 32.9824 24.1439 32.9824 23.1174C32.9824 22.0909 33.8219 21.2587 34.8574 21.2587C35.8929 21.2587 36.7324 22.0909 36.7324 23.1174Z" fill="black"/>
</svg>
