<svg width="73" height="72" viewBox="0 0 73 72" fill="none" xmlns="http://www.w3.org/2000/svg">
<path d="M43.1323 23.4027V23.4133L39.0683 27.4667H30.1723C29.8145 27.4659 29.4575 27.498 29.1056 27.5627V26.4C29.1061 24.9857 29.6682 23.6294 30.6683 22.6293C31.6684 21.6292 33.0246 21.0672 34.4389 21.0667H38.7056C39.5776 21.0676 40.4363 21.2808 41.2075 21.6878C41.9787 22.0948 42.6393 22.6833 43.1323 23.4027ZM17.6709 40.032L16.4869 41.8133C16.4088 41.9292 16.3545 42.0595 16.3272 42.1966C16.2999 42.3337 16.3001 42.4749 16.3279 42.6119C16.3557 42.7489 16.4105 42.879 16.4891 42.9946C16.5677 43.1102 16.6685 43.2091 16.7856 43.2853C16.9573 43.4058 17.1626 43.4692 17.3723 43.4667C17.548 43.466 17.7209 43.4219 17.8754 43.3381C18.0299 43.2544 18.1612 43.1336 18.2576 42.9867L19.4416 41.216C19.6369 40.9229 19.9019 40.6827 20.2128 40.5171C20.5236 40.3514 20.8707 40.2654 21.2229 40.2667H23.7723V38.1333H21.2229C20.5204 38.1332 19.8286 38.3063 19.209 38.6375C18.5894 38.9687 18.0611 39.4477 17.6709 40.032ZM21.1803 30.4213L20.5509 27.2533C20.5235 27.1155 20.469 26.9845 20.3908 26.8678C20.3125 26.7511 20.212 26.651 20.095 26.5733C19.9779 26.4955 19.8467 26.4417 19.7088 26.4148C19.5709 26.3879 19.429 26.3885 19.2913 26.4166C19.1537 26.4447 19.0229 26.4997 18.9065 26.5785C18.7902 26.6573 18.6905 26.7583 18.6133 26.8757C18.5361 26.993 18.4828 27.1245 18.4566 27.2626C18.4303 27.4006 18.4316 27.5425 18.4603 27.68L19.0896 30.848C19.264 31.6957 19.6903 32.471 20.3127 33.0724C20.935 33.6738 21.7244 34.0733 22.5776 34.2187L23.7723 34.4213V33.8667C23.7686 33.3302 23.8368 32.7957 23.9749 32.2773L22.9296 32.1067C22.502 32.0351 22.1061 31.8358 21.7939 31.535C21.4817 31.2342 21.2678 30.846 21.1803 30.4213ZM55.4736 40.032C55.0834 39.4477 54.5551 38.9687 53.9355 38.6375C53.3159 38.3063 52.6242 38.1332 51.9216 38.1333H49.3723V40.2667H51.9216C52.2739 40.2654 52.6209 40.3514 52.9318 40.5171C53.2427 40.6827 53.5076 40.9229 53.7029 41.216L54.8869 42.9867C54.9833 43.1336 55.1147 43.2544 55.2692 43.3381C55.4237 43.4219 55.5965 43.4661 55.7723 43.4667C55.982 43.4692 56.1872 43.4058 56.3589 43.2853C56.4761 43.209 56.5769 43.1102 56.6554 42.9946C56.734 42.879 56.7888 42.7489 56.8166 42.6119C56.8444 42.4749 56.8447 42.3337 56.8174 42.1966C56.7901 42.0595 56.7358 41.9292 56.6576 41.8133L55.4736 40.032ZM49.3723 34.4213L50.5669 34.2187C51.4201 34.0733 52.2095 33.6738 52.8319 33.0724C53.4543 32.471 53.8805 31.6957 54.0549 30.848L54.6843 27.68C54.713 27.5425 54.7142 27.4006 54.688 27.2626C54.6617 27.1245 54.6084 26.993 54.5312 26.8757C54.454 26.7583 54.3544 26.6573 54.238 26.5785C54.1217 26.4997 53.9909 26.4447 53.8532 26.4166C53.7156 26.3885 53.5737 26.3879 53.4358 26.4148C53.2979 26.4417 53.1666 26.4955 53.0496 26.5733C52.9325 26.651 52.832 26.7511 52.7538 26.8678C52.6755 26.9845 52.6211 27.1155 52.5936 27.2533L51.9643 30.4213C51.8768 30.846 51.6629 31.2342 51.3507 31.535C51.0384 31.8358 50.6425 32.0351 50.2149 32.1067L49.1696 32.2773C49.3078 32.7957 49.3759 33.3302 49.3723 33.8667V34.4213ZM54.0016 48.6507C53.6443 47.5795 52.8772 46.6936 51.8683 46.1867L49.2869 44.896C49.2123 45.6338 49.0658 46.3626 48.8496 47.072L50.9083 48.096C51.1605 48.2194 51.3851 48.3926 51.5685 48.6053C51.7518 48.818 51.8901 49.0657 51.9749 49.3333L52.6256 51.2747C52.6967 51.4868 52.8329 51.6712 53.0148 51.8014C53.1968 51.9317 53.4152 52.0012 53.6389 52C53.7546 51.9971 53.8693 51.9792 53.9803 51.9467C54.2476 51.8541 54.4678 51.6602 54.5935 51.4068C54.7192 51.1534 54.7403 50.8608 54.6523 50.592L54.0016 48.6507ZM25.9056 33.8667V40.6293L35.5056 31.0293V29.6H30.1723C29.6119 29.5998 29.057 29.7101 28.5393 29.9245C28.0216 30.1388 27.5512 30.4531 27.1549 30.8493C26.7587 31.2456 26.4444 31.716 26.2301 32.2337C26.0157 32.7514 25.9055 33.3063 25.9056 33.8667ZM37.6389 40.9707V46.6667C37.6389 46.9496 37.5266 47.2209 37.3265 47.4209C37.1265 47.6209 36.8552 47.7333 36.5723 47.7333C36.2894 47.7333 36.0181 47.6209 35.818 47.4209C35.618 47.2209 35.5056 46.9496 35.5056 46.6667V43.104L28.3483 50.2613C29.7472 51.9541 31.6343 53.1738 33.7522 53.7541C35.8701 54.3345 38.1155 54.247 40.1818 53.5038C42.2482 52.7606 44.0348 51.3977 45.2978 49.6014C46.5609 47.805 47.2388 45.6626 47.2389 43.4667V33.8667C47.2401 33.1705 47.0678 32.4849 46.7376 31.872L37.6389 40.9707ZM28.8496 17.8347L31.2496 18.432C31.7226 18.5465 32.1411 18.8218 32.4336 19.2107C33.086 19.0261 33.7609 18.9327 34.4389 18.9333H34.7056C34.4552 18.3031 34.0587 17.7415 33.5487 17.2945C33.0387 16.8476 32.4299 16.5282 31.7723 16.3627L29.3616 15.7653C29.0873 15.6977 28.7973 15.7417 28.5554 15.8878C28.3136 16.0338 28.1396 16.2699 28.0717 16.5442C28.0039 16.8185 28.0477 17.1085 28.1935 17.3504C28.3394 17.5924 28.5754 17.7666 28.8496 17.8347ZM45.0736 16.544C45.0057 16.2696 44.8315 16.0334 44.5895 15.8874C44.3475 15.7414 44.0574 15.6975 43.7829 15.7653L41.3723 16.3627C40.7147 16.5282 40.1058 16.8476 39.5958 17.2945C39.0859 17.7415 38.6893 18.3031 38.4389 18.9333H38.7056C39.3837 18.9327 40.0585 19.026 40.7109 19.2107C41.0035 18.8218 41.422 18.5466 41.8949 18.432L44.2949 17.8347C44.5693 17.7667 44.8055 17.5926 44.9515 17.3506C45.0976 17.1085 45.1415 16.8184 45.0736 16.544ZM68.5723 36C68.5723 42.329 66.6955 48.5159 63.1793 53.7782C59.6631 59.0406 54.6654 63.1421 48.8181 65.5641C42.9709 67.9861 36.5368 68.6198 30.3294 67.3851C24.122 66.1504 18.4201 63.1027 13.9449 58.6274C9.46958 54.1521 6.42188 48.4503 5.18715 42.2429C3.95242 36.0355 4.58613 29.6014 7.00813 23.7541C9.43014 17.9069 13.5317 12.9092 18.794 9.39297C24.0564 5.87677 30.2433 4 36.5723 4C45.0592 4 53.1985 7.37142 59.1997 13.3726C65.2009 19.3737 68.5723 27.5131 68.5723 36ZM15.5165 54.0388L54.6111 14.9442C49.3077 10.397 42.4833 8.01943 35.5025 8.28697C28.5217 8.55451 21.8993 11.4474 16.9595 16.3872C12.0197 21.327 9.12679 27.9494 8.85925 34.9302C8.59171 41.911 10.9693 48.7354 15.5165 54.0388ZM64.3056 36C64.3134 29.3811 61.9437 22.9796 57.6281 17.9612L18.5335 57.0558C22.5596 60.5079 27.4914 62.7328 32.7438 63.4666C37.9963 64.2005 43.349 63.4125 48.1671 61.1961C52.9852 58.9797 57.0666 55.4279 59.927 50.962C62.7875 46.4961 64.3071 41.3035 64.3056 36Z" fill="black"/>
</svg>
