<svg width="73" height="72" viewBox="0 0 73 72" fill="none" xmlns="http://www.w3.org/2000/svg">
<path d="M59.1939 58.3979L56.7696 60.8223V49.2861H53.0196V60.8223L50.5953 58.3979L47.9439 61.0493L54.8946 68L61.8453 61.0493L59.1939 58.3979Z" fill="black"/>
<path d="M34.2696 49.2861V60.8223L31.8453 58.3979L29.1939 61.0493L36.1446 68L43.0953 61.0493L40.4439 58.3979L38.0196 60.8223V49.2861H34.2696Z" fill="black"/>
<path d="M15.5196 49.2861V60.8223L13.0953 58.3979L10.4439 61.0493L17.3946 68L24.3453 61.0493L21.6939 58.3979L19.2696 60.8223V49.2861H15.5196Z" fill="black"/>
<path d="M28.0201 16.3198C27.2017 17.7388 26.7696 19.3574 26.7696 21C26.7696 26.1689 30.9756 30.375 36.1446 30.375C41.3135 30.375 45.5196 26.1689 45.5196 21C45.5196 19.354 45.0875 17.7353 44.2046 16.2153L36.1446 4L28.0201 16.3198Z" fill="black"/>
<path d="M56.7696 30.375C60.9058 30.375 64.2696 27.0112 64.2696 22.875C64.2696 21.751 64.0259 20.6704 63.4966 19.5605L56.7696 7.24266L49.9908 19.6631C49.5132 20.6704 49.2696 21.751 49.2696 22.875C49.2696 27.0112 52.6334 30.375 56.7696 30.375Z" fill="black"/>
<path d="M8.74078 19.6636C8.26324 20.6704 8.01959 21.751 8.01959 22.875C8.01959 27.0112 11.3834 30.375 15.5196 30.375C19.6558 30.375 23.0196 27.0112 23.0196 22.875C23.0196 21.751 22.7759 20.6704 22.2466 19.5605L15.5196 7.24266L8.74078 19.6636Z" fill="black"/>
<path d="M56.7695 37.875H53.0195V34.125H41.7695V37.875H38.0195V34.125H26.7695V37.875H23.0195V34.125H4.14453V45.375H15.5195V41.625H19.2695V45.375H30.5195V41.625H34.2695V45.375H45.5195V41.625H49.2695V45.375H68.1445V34.125H56.7695V37.875Z" fill="black"/>
</svg>
