<svg width="73" height="72" viewBox="0 0 73 72" fill="none" xmlns="http://www.w3.org/2000/svg">
<path d="M4.71484 57.2725H68.7148V61.9998H4.71484V57.2725Z" fill="black"/>
<path d="M62.6082 11.3614C61.7023 10.4585 60.4408 9.9562 59.171 10.003C57.8923 10.0416 56.6716 10.6122 55.8246 11.567L44.8557 23.9177C44.6235 24.0662 44.4315 24.2775 44.3071 24.5351L42.371 26.7147H53.9179L62.6076 17.9289C63.4881 17.0519 63.9726 15.8856 63.9726 14.6451C63.9726 13.4038 63.4873 12.2377 62.6082 11.3614ZM59.4034 16.0785C58.5636 16.0785 57.8754 15.3981 57.8754 14.5591C57.8754 13.72 58.5487 13.0396 59.3886 13.0396H59.4036C60.2441 13.0396 60.9241 13.72 60.9241 14.5591C60.9241 15.3981 60.2439 16.0785 59.4034 16.0785Z" fill="black"/>
<path d="M55.8201 31.3754L46.8788 39.6939C40.0073 46.0855 31.5041 50.4354 22.2888 52.2724L22.0334 52.3233C22.2654 52.4623 22.5324 52.5455 22.8148 52.5455C31.0626 52.5455 38.9434 49.4739 45.0044 43.8976L55.8603 33.9092C56.359 33.45 56.4937 32.7184 56.19 32.113L55.8201 31.3754Z" fill="black"/>
<path d="M21.9893 50.7826C30.9278 49.0004 39.1741 44.782 45.838 38.5824L55.1087 29.9574L54.2443 28.2342H41.0213L21.6737 50.0185C21.4465 50.274 21.33 50.5921 21.3066 50.9187L21.9893 50.7826Z" fill="black"/>
<path d="M9.45508 31.2729L17.7514 50.182L15.381 31.2729H9.45508Z" fill="black"/>
<path d="M61.6041 47.818L37.9004 52.5453H61.6041V47.818Z" fill="black"/>
</svg>
