<svg width="32" height="32" viewBox="0 0 32 32" fill="none" xmlns="http://www.w3.org/2000/svg">
<path d="M16.0059 7.80113C18.6793 7.80113 18.9959 7.81285 20.0473 7.85974C21.0244 7.90272 21.5521 8.06681 21.9038 8.20356C22.369 8.38328 22.7051 8.60207 23.053 8.9498C23.4047 9.30143 23.6197 9.63352 23.7995 10.0985C23.9363 10.4501 24.1004 10.9814 24.1434 11.9543C24.1903 13.0092 24.2021 13.3257 24.2021 15.9941C24.2021 18.6665 24.1903 18.983 24.1434 20.034C24.1004 21.0107 23.9363 21.5382 23.7995 21.8898C23.6197 22.3548 23.4008 22.6908 23.053 23.0385C22.7012 23.3901 22.369 23.605 21.9038 23.7847C21.5521 23.9215 21.0205 24.0856 20.0473 24.1285C18.992 24.1754 18.6754 24.1871 16.0059 24.1871C13.3324 24.1871 13.0158 24.1754 11.9644 24.1285C10.9873 24.0856 10.4596 23.9215 10.1079 23.7847C9.64276 23.605 9.30662 23.3862 8.95876 23.0385C8.607 22.6869 8.39203 22.3548 8.21223 21.8898C8.07543 21.5382 7.91128 21.0068 7.86828 20.034C7.82138 18.9791 7.80965 18.6626 7.80965 15.9941C7.80965 13.3217 7.82138 13.0053 7.86828 11.9543C7.91128 10.9775 8.07543 10.4501 8.21223 10.0985C8.39203 9.63352 8.6109 9.29752 8.95876 8.9498C9.31053 8.59816 9.64276 8.38328 10.1079 8.20356C10.4596 8.06681 10.9912 7.90272 11.9644 7.85974C13.0158 7.81285 13.3324 7.80113 16.0059 7.80113ZM16.0059 6C13.2894 6 12.9494 6.01172 11.8824 6.05861C10.8192 6.10549 10.0883 6.2774 9.45515 6.52354C8.79461 6.7814 8.23569 7.12131 7.68067 7.68002C7.12175 8.23481 6.78171 8.79351 6.52374 9.44989C6.27751 10.0867 6.10553 10.8134 6.05863 11.8761C6.01173 12.9467 6 13.2866 6 16.002C6 18.7173 6.01173 19.0572 6.05863 20.1239C6.10553 21.1866 6.27751 21.9172 6.52374 22.5501C6.78171 23.2104 7.12175 23.7691 7.68067 24.3239C8.23569 24.8787 8.79461 25.2225 9.45124 25.4765C10.0883 25.7226 10.8153 25.8945 11.8784 25.9414C12.9455 25.9883 13.2855 26 16.002 26C18.7184 26 19.0584 25.9883 20.1255 25.9414C21.1886 25.8945 21.9195 25.7226 22.5527 25.4765C23.2093 25.2225 23.7682 24.8787 24.3232 24.3239C24.8782 23.7691 25.2222 23.2104 25.4763 22.554C25.7225 21.9172 25.8945 21.1905 25.9414 20.1278C25.9883 19.0611 26 18.7212 26 16.0059C26 13.2905 25.9883 12.9506 25.9414 11.884C25.8945 10.8213 25.7225 10.0906 25.4763 9.45771C25.23 8.79351 24.89 8.23481 24.3311 7.68002C23.776 7.12522 23.2171 6.7814 22.5605 6.52745C21.9234 6.2813 21.1964 6.1094 20.1333 6.06251C19.0623 6.01172 18.7223 6 16.0059 6Z" fill="white"/>
<path d="M16.0059 10.8642C13.1683 10.8642 10.8661 13.1655 10.8661 16.002C10.8661 18.8384 13.1683 21.1397 16.0059 21.1397C18.8435 21.1397 21.1456 18.8384 21.1456 16.002C21.1456 13.1655 18.8435 10.8642 16.0059 10.8642ZM16.0059 19.3346C14.1649 19.3346 12.6719 17.8422 12.6719 16.002C12.6719 14.1618 14.1649 12.6693 16.0059 12.6693C17.8468 12.6693 19.3398 14.1618 19.3398 16.002C19.3398 17.8422 17.8468 19.3346 16.0059 19.3346Z" fill="white"/>
<path d="M22.5488 10.661C22.5488 11.3252 22.0094 11.8605 21.3488 11.8605C20.6844 11.8605 20.1489 11.3213 20.1489 10.661C20.1489 9.99684 20.6883 9.46158 21.3488 9.46158C22.0094 9.46158 22.5488 10.0007 22.5488 10.661Z" fill="white"/>
</svg>
