<svg width="300" height="150" viewBox="0 0 300 150" fill="none" xmlns="http://www.w3.org/2000/svg">
<path d="M86.4659 90.4851C86.4659 91.6975 86.1922 92.9926 85.2759 93.9833H109.659V81.8349C107.964 82.6063 105.851 82.9861 103.859 82.9861H98.592V78.9877H101.367C102.876 78.9877 104.216 79.1293 105.651 79.7426V69.2454C104.216 69.854 102.876 70.0003 101.367 70.0003H98.592V65.5019H103.885C105.901 65.5019 107.991 65.8793 109.685 66.6483V55.0047H85.2069C86.147 55.8115 86.4683 57.2929 86.4683 58.503L86.4659 90.4851ZM65.2887 69.9956V65.9972H65.8004C67.1808 65.9972 68.7849 66.2166 69.8273 66.7686V55.0024H52.6913V93.981H66.5477C65.6076 93.1742 65.2863 91.6928 65.2863 90.4827V79.4902H71.8408V90.4827C71.8408 91.6952 71.5219 93.1718 70.5794 93.981H84.4453V55H71.8408V69.9932L65.2887 69.9956ZM35.0912 65.9972H38.0615V90.4827C38.0615 91.6952 37.7402 93.1718 36.8001 93.981H50.6659V55H31V66.7662C32.1067 66.2143 33.7084 65.9949 35.0888 65.9949L35.0912 65.9972ZM243.777 69.9956H228.688C227.916 69.9956 227.029 69.9248 226.141 69.6417V79.3416C227.029 79.0656 227.916 78.9877 228.688 78.9877H232.698V81.9836C232.203 82.4223 231.12 82.6912 230.016 82.6912C225.429 82.6912 222.057 79.1057 222.057 74.7653C222.057 70.4249 225.337 66.5162 229.923 66.5162C232.698 66.5162 235.825 67.4126 239.252 69.0166V55.0189H229.168C218.28 55.0189 209.605 63.3694 209.605 74.6615C209.605 85.7153 218.339 95 229.673 95C235.918 95 241.735 92.4807 244.772 89.4023C244.167 88.2983 243.779 87.2038 243.779 85.8805L243.777 69.9956ZM263.198 65.4971C265.213 65.4971 267.303 65.8746 268.998 66.6436V55H244.546C245.486 55.8067 245.807 57.2881 245.807 58.4983V90.4851C245.807 91.6975 245.533 92.9926 244.617 93.9833H269V81.8349C267.305 82.6063 265.192 82.9861 263.2 82.9861H257.907V78.9877H260.682C262.191 78.9877 263.531 79.1293 264.966 79.7426V69.2454C263.531 69.854 262.191 70.0003 260.682 70.0003H257.907V65.5019L263.198 65.4971ZM204.707 76.3953C206.808 74.0954 208.086 71.0807 208.086 68.0141C208.086 59.0337 201.341 55.0071 194.101 55.0071L178.493 55.0024C179.429 55.8091 179.755 57.2763 179.755 58.4841L179.75 90.4851C179.75 91.6645 179.424 92.9996 178.489 93.9833H193.511C192.571 92.9996 192.357 91.6244 192.357 90.4851V82.552C196.641 83.3635 199.533 87.3265 199.533 90.5016C199.533 91.681 199.247 93.002 198.309 93.9833H213.291C212.351 92.9996 212.108 91.5725 212.02 90.3695C211.516 83.4885 209.129 78.6363 204.707 76.3953ZM192.331 72.5503V65.4736C194.347 65.4736 196.924 66.0255 196.924 69.0237C196.924 72.0219 194.354 72.5739 192.331 72.5739V72.5503ZM137.369 76.4967L133.335 65.5042H139.385L143.419 55.0071H115.204C116.085 55.8917 116.918 56.8777 117.525 58.0336L133.15 93.981H141.682L154.541 63.9945V90.4851C154.534 91.7282 154.222 93.1742 153.28 93.9833H177.737V81.8349C176.063 82.6063 173.957 83.4862 171.939 83.4862H166.636V78.9877H169.407C170.923 78.9877 172.258 79.1293 173.695 79.7426V69.2454C172.26 69.854 170.925 70.0003 169.407 70.0003H166.636V66.0019H171.932C173.948 66.0019 176.054 66.3794 177.729 67.1531V55.0047H145.457L137.369 76.4967Z" fill="white"/>
</svg>
