<svg width="300" height="150" viewBox="0 0 300 150" fill="none" xmlns="http://www.w3.org/2000/svg">
<path d="M223.505 102.531C219.687 102.261 216.706 101.083 214.372 98.8777C213.347 97.8772 212.49 96.7164 211.836 95.4405C211.741 95.2376 211.647 95.0752 211.633 95.0752C211.449 95.175 211.269 95.2833 211.094 95.3999L207.802 97.2945C202.582 100.109 197.212 101.76 191.803 102.247C190.049 102.383 188.026 102.423 186.785 102.315C184.006 102.044 181.753 101.259 179.931 99.8791C179.251 99.3204 178.619 98.7048 178.043 98.0387C177.691 97.5849 177.367 97.1104 177.072 96.6178L176.883 96.2795L176.289 96.7938C173.051 99.5814 169.719 101.314 166.414 101.936C164.822 102.234 163.109 102.261 161.909 102.017C161.157 101.901 160.443 101.608 159.824 101.164C159.205 100.72 158.7 100.136 158.347 99.4596C157.538 97.9169 157.362 95.8059 157.74 92.7882C157.969 90.9749 158.145 90.0141 159.089 86.6987C159.521 84.9395 159.899 82.9097 160.033 81.5835C160.114 80.7987 160.114 79.662 160.033 79.1478C159.858 77.9704 159.426 77.2938 158.644 76.9826C158.374 76.8743 157.659 76.8473 157.322 76.942C155.878 77.3209 154.219 79.0801 152.33 82.2196C149.727 86.5499 148.283 90.5825 147.919 94.7369C147.838 95.6029 147.852 98.0658 147.933 98.8507C148.027 99.7438 148.202 100.65 148.445 101.286L148.661 101.909C148.688 101.99 148.648 101.99 147.366 101.963C145.936 101.936 145.032 101.868 144.048 101.692C140.473 101.097 138.449 99.6626 137.572 97.0915C137.033 95.5353 136.898 93.8708 137.073 91.3809C137.202 89.624 137.5 87.8838 137.963 86.1845C138.365 84.7105 138.658 83.2089 138.84 81.6918C138.921 80.9205 138.935 79.4861 138.867 79.0936C138.597 77.8351 138.031 77.172 136.979 76.9285C136.763 76.8879 136.533 76.8743 136.223 76.8879C135.959 76.8831 135.697 76.9338 135.454 77.0367C134.105 77.578 132.662 79.3372 131.137 82.4496C129.471 85.7051 128.424 89.2431 128.048 92.883C127.846 94.8316 127.859 97.6192 128.048 99.4326C128.156 100.407 128.372 101.462 128.588 102.031C128.615 102.112 128.588 102.112 127.455 102.085C126.1 102.088 124.75 101.924 123.434 101.598C121.793 101.235 120.295 100.392 119.131 99.1754C118.372 98.2688 117.819 97.2065 117.512 96.063C117.477 95.9261 117.437 95.7906 117.391 95.6571C117.377 95.6435 117.202 95.7924 116.986 95.9954C113.951 98.7695 111.212 100.502 108.285 101.503C106.666 102.044 104.912 102.356 103.347 102.356C101.054 102.356 99.3949 101.544 98.3291 99.9197C97.8975 99.2702 97.6546 98.7018 97.4523 97.8899C97.0476 96.266 97.115 94.3038 97.7221 91.232L99.4353 84.2629L100.838 79.0801C101.054 78.214 101.068 78.1328 101.068 77.6863C101.054 76.1977 100.461 75.3587 99.4488 75.3452C99.179 75.3452 99.1116 75.3587 98.8013 75.5076C98.3426 75.7376 97.9919 75.9812 97.1015 76.6172L96.3461 77.1585L96.2382 77.4968C95.6176 79.3643 94.2686 82.0978 92.7037 84.5877C90.9905 87.3483 88.3599 90.9478 86.0935 93.6814C81.6822 98.986 77.8915 101.868 74.5459 102.477C73.9253 102.586 72.9945 102.586 72.5224 102.464C70.4449 101.95 68.7451 99.8385 67.2342 96.0089C66.5445 93.6707 65.8969 91.3202 65.2916 88.9586C64.6546 86.5708 64.0115 84.1846 63.3625 81.8001C62.9005 80.0226 62.2017 78.3157 61.285 76.7255C60.7454 75.9136 60.0979 75.3993 59.5313 75.3452C59.3019 75.3181 59.2615 75.3317 58.9107 75.5076C58.56 75.6835 57.4673 76.3872 56.5634 77.0232L56.0508 77.375C56.0238 77.3886 55.6461 76.9691 55.039 76.1571C54.6996 75.7133 54.3578 75.2713 54.0138 74.831C53.9598 74.7768 54.0408 74.6957 54.6883 74.1002C56.1654 72.7725 57.6359 71.4373 59.0996 70.0947C61.0961 68.2543 62.2563 67.3071 63.6053 66.441C65.0353 65.4937 65.9391 65.1419 67.0049 65.0878C69.6759 64.9525 71.4566 66.441 72.4009 69.9864C72.6303 70.7984 72.7382 71.3397 73.0755 73.5589L74.9641 83.8434C75.6791 86.7123 76.475 88.3767 77.3249 88.7962C77.5542 88.9045 77.6217 88.9315 77.824 88.9045C78.7683 88.8368 80.0769 87.3753 81.9115 84.4388C83.3955 82.003 84.3398 80.0544 84.6501 78.5659C84.731 78.187 84.7445 78.0246 84.7445 77.2397C84.7445 76.4548 84.731 76.2925 84.677 76.0759C84.4612 75.3181 84.07 74.8039 83.4629 74.5062C82.9638 74.2626 82.6265 74.195 81.8441 74.195C80.9249 74.1949 80.014 74.3694 79.1595 74.7092C78.8897 74.8039 78.7548 74.8445 78.7279 74.8174C78.7851 74.5742 78.8571 74.3346 78.9437 74.1002C79.6992 71.881 80.5625 70.0406 81.7227 68.6873C82.1274 68.1461 82.9638 67.2935 83.4494 66.9011C84.2588 66.2245 85.3381 65.6155 86.3094 65.2772C88.4003 64.5059 91.2468 64.3706 93.0545 64.966C95.5097 65.7779 96.8317 67.8348 97.1015 71.4073L97.1285 71.7456L97.3174 71.5697L98.9362 70.2165C102.174 67.2394 104.062 65.8862 105.627 65.4261C105.938 65.3314 106.113 65.3178 106.653 65.2908C108.622 65.2231 109.998 65.8321 110.943 67.28C111.806 68.5791 112.197 70.2571 112.076 72.1922C112.049 72.7335 111.981 73.1394 111.631 74.8986L109.553 86.6717C109.31 88.2143 109.283 88.2685 109.324 88.8368C109.378 90.2171 109.674 91.0696 110.295 91.7057C110.47 91.8975 110.681 92.0537 110.916 92.1657C111.455 92.4364 112.265 92.5176 112.804 92.3823C113.319 92.2047 113.813 91.9686 114.275 91.6786C115.331 91.0145 116.321 90.2486 117.229 89.3916C117.282 89.0222 117.331 88.6523 117.377 88.282L117.917 84.8042L118.699 79.3372L118.861 76.6308C118.807 75.9 118.322 75.5211 117.742 75.7106C117.337 75.8459 116.473 76.3872 115.273 77.2262C114.774 77.578 114.666 77.6321 114.625 77.5915L112.372 74.9798C112.372 74.9663 112.48 74.8445 112.615 74.7498L116.973 70.6901L121.559 66.6304C122.396 65.9944 123.043 65.6155 123.61 65.4126C123.853 65.3314 123.974 65.3178 124.419 65.3178C124.743 65.3178 125.094 65.3449 125.229 65.3855C126.375 65.6561 127.279 66.2921 128.021 67.4153C128.763 68.5385 129.262 69.797 129.478 71.2043C129.613 71.9757 129.613 73.4778 129.505 74.1138L129.438 74.5739C129.438 74.6009 129.572 74.4385 129.707 74.2085C130.879 72.5198 132.309 71.0266 133.943 69.7835C134.592 69.305 135.262 68.8579 135.953 68.4438C138.328 67.0905 140.945 66.3463 143.562 66.2786C145.99 66.1974 147.825 66.7928 149.093 68.0378C149.566 68.5138 149.953 69.0676 150.24 69.6752C150.806 70.8525 151.049 72.111 151.13 73.9108L151.157 74.7768L151.885 74.1408C152.307 73.7753 152.703 73.382 153.072 72.9635C153.807 72.1283 154.582 71.329 155.393 70.5683C158.05 68.1325 160.856 66.7522 163.919 66.3733C164.661 66.2786 165.902 66.238 166.536 66.3057C168.099 66.3692 169.584 67.0102 170.704 68.1055C172.188 69.6887 172.822 71.7998 172.674 74.7904C172.566 76.9555 172.242 78.9448 171.325 82.9097C170.205 87.8896 170.03 88.9451 170.165 90.2983C170.272 91.3809 170.488 91.841 171.041 92.1387C171.446 92.3552 171.797 92.4364 172.525 92.4635C173.119 92.4905 173.159 92.477 173.47 92.3687C173.874 92.2334 174.414 91.9628 174.927 91.6109C175.237 91.4079 175.304 91.3403 175.291 91.2862C175.223 91.0155 175.156 89.527 175.196 88.6474C175.248 85.8176 175.94 83.0366 177.22 80.5145C178.137 78.6495 179.279 76.9044 180.619 75.3181C184.667 70.3112 189.793 67.1988 195.378 66.1162C197.671 65.6832 200.369 65.5749 202.339 65.8456C206.116 66.3327 208.463 67.9701 209.516 70.8254C209.853 71.7727 210.055 72.7876 210.082 73.9108C210.109 75.034 210.001 75.8459 209.637 76.9691C208.828 79.459 206.939 81.9489 203.944 84.5742C200.396 87.6595 196.025 89.8111 191.061 90.9343L189.037 91.3403C188.983 91.3403 189.442 91.8816 189.752 92.1522C190.697 93.0589 191.857 93.5731 193.3 93.749C193.84 93.8167 195.863 93.7761 196.808 93.6814C200.787 93.3025 204.686 92.2334 209.273 90.2577L210.217 89.8517L210.19 89.6217C210.064 88.2443 210.064 86.8582 210.19 85.4808C210.535 82.2475 211.665 79.1484 213.482 76.4548C214.227 75.3163 215.061 74.2394 215.977 73.2342C217.967 70.8961 220.397 68.974 223.127 67.5777C226.223 66.0214 229.634 65.2018 233.096 65.1825C234.675 65.1554 235.741 65.2366 237.009 65.4937C238.731 65.8312 240.357 66.5476 241.771 67.5912C242.765 68.3881 243.641 69.3221 244.374 70.3653C246.195 72.9365 247.099 76.3195 246.991 80.2033C246.897 83.7216 246.182 86.8882 244.833 89.8788C243.484 92.5582 241.622 95.3323 239.383 97.4162C235.943 100.664 232.004 102.423 227.269 102.91C226.662 102.978 224.26 103.019 223.68 102.992L223.505 102.531ZM226.446 94.1956C228.941 93.8979 231.167 92.1657 233.029 89.0127C234.9 85.9987 235.87 82.5089 235.821 78.9583C235.781 77.578 235.619 76.5631 235.241 75.4129C234.891 74.3709 234.54 73.7484 234.068 73.3154C233.596 72.8823 233.123 72.747 232.152 72.8147C231.121 72.8772 230.112 73.1439 229.184 73.5995C227.431 74.4656 225.947 75.9271 224.598 78.2005C222.882 80.9777 221.885 84.1407 221.697 87.4024C221.589 89.1616 221.859 90.6501 222.547 92.044C223.033 93.0183 223.653 93.7084 224.341 94.0061C225.014 94.2535 225.739 94.3098 226.446 94.1956ZM187.904 86.8882C191.674 85.4022 194.928 82.8434 197.266 79.5267C197.9 78.5794 198.305 77.6592 198.44 76.8879C198.494 76.4047 198.471 75.916 198.373 75.4399C198.305 75.1287 198.103 74.7362 197.941 74.5468C197.779 74.3573 197.455 74.1408 197.132 74.0461C196.608 73.9367 196.068 73.923 195.54 74.0055C193.826 74.3709 192.14 75.6835 190.44 77.984C188.592 80.4739 187.58 82.8556 187.338 85.1967C187.284 85.8056 187.284 87.0912 187.338 87.0912C187.516 87.0377 187.692 86.9744 187.864 86.9017L187.904 86.8882ZM105.614 59.1471C104.67 59.0659 103.698 58.7953 103.078 58.4299C102.727 58.2269 102.201 57.7533 101.972 57.4421C101.606 56.9028 101.366 56.2876 101.27 55.6423C101.176 54.923 101.185 54.1938 101.297 53.4771C101.513 52.3946 102.106 51.3661 103.105 50.3241C104.795 48.4698 107.103 47.3001 109.593 47.0358C110.943 46.9005 112.157 47.1441 113.06 47.8477C113.964 48.5514 114.679 49.6069 115.003 50.6218C115.138 51.1225 115.192 51.9751 115.084 52.5705C114.841 53.9643 114.072 55.2769 112.71 56.6301C111.266 58.051 109.715 58.8224 107.853 59.093C107.314 59.1742 106.18 59.2013 105.641 59.1607L105.614 59.1471Z" fill="#1CA7CC"/>
</svg>
